<svg xmlns="http://www.w3.org/2000/svg" viewBox="0 0 610.5 363.04"><defs><clipPath id="clip-path" transform="translate(-2156.52 -263)"><path class="cls-1" d="M2364.21 494.44h12.07v12.07h-12.07z"/></clipPath><clipPath id="clip-path-2" transform="translate(-2156.52 -263)"><circle cx="2389.33" cy="500.59" r="6.04" stroke-miterlimit="10" stroke="#fff" fill="#ed1c24"/></clipPath><clipPath id="clip-path-3" transform="translate(-2156.52 -263)"><path class="cls-3" transform="rotate(-6.19 2194.675 476.374)" d="M2192.51 428.86h2.56v94.7h-2.56z"/></clipPath><clipPath id="clip-path-4" transform="translate(-2156.52 -263)"><path class="cls-3" transform="rotate(-6.19 2188.614 476.973)" d="M2186.58 429.51h2.35v94.7h-2.35z"/></clipPath><clipPath id="clip-path-5" transform="translate(-2156.52 -263)"><path class="cls-3" transform="rotate(-6.19 2197.653 531.067)" d="M2192.46 528.51h8.52v4.82h-8.52z"/></clipPath><clipPath id="clip-path-6" transform="translate(-2156.52 -263)"><path class="cls-3" transform="rotate(-6.19 2197.518 530.132)" d="M2192.36 529.78h8.52v.39h-8.52z"/></clipPath><clipPath id="clip-path-7" transform="translate(-2156.52 -263)"><path class="cls-3" transform="rotate(-6.19 2196.83 523.974)" d="M2191.69 523.6h8.52v.39h-8.52z"/></clipPath><clipPath id="clip-path-8" transform="translate(-2156.52 -263)"><path class="cls-3" transform="rotate(-6.19 2197.08 526.214)" d="M2191.94 525.64h8.52v.77h-8.52z"/></clipPath><clipPath id="clip-path-9" transform="translate(-2156.52 -263)"><path class="cls-3" transform="rotate(-81.48 2225.284 484.87)" d="M2177.95 483.58h94.7v2.56h-94.7z"/></clipPath><clipPath id="clip-path-10" transform="translate(-2156.52 -263)"><path class="cls-3" transform="rotate(-81.48 2231.284 485.77)" d="M2183.95 484.59h94.7v2.35h-94.7z"/></clipPath><clipPath id="clip-path-11" transform="translate(-2156.52 -263)"><path class="cls-3" transform="rotate(-81.48 2236.34 431.205)" d="M2233.94 426.94h4.82v8.52h-4.82z"/></clipPath><clipPath id="clip-path-12" transform="translate(-2156.52 -263)"><path class="cls-3" transform="rotate(-81.48 2236.198 432.144)" d="M2236.02 427.88h.39v8.52h-.39z"/></clipPath><clipPath id="clip-path-13" transform="translate(-2156.52 -263)"><path class="cls-3" transform="rotate(-81.48 2235.277 438.297)" d="M2235.1 434.02h.39v8.52h-.39z"/></clipPath><clipPath id="clip-path-14" transform="translate(-2156.52 -263)"><path class="cls-3" transform="rotate(-81.48 2235.605 436.072)" d="M2235.23 431.8h.77v8.52h-.77z"/></clipPath><clipPath id="clip-path-15" transform="translate(-2156.52 -263)"><path class="cls-3" transform="rotate(-86.28 2213.211 485.16)" d="M2165.95 483.83h94.7v2.56h-94.7z"/></clipPath><clipPath id="clip-path-16" transform="translate(-2156.52 -263)"><path class="cls-3" transform="rotate(-86.28 2219.267 485.552)" d="M2172 484.33h94.7v2.35H2172z"/></clipPath><clipPath id="clip-path-17" transform="translate(-2156.52 -263)"><path class="cls-3" transform="rotate(-86.28 2219.743 430.762)" d="M2217.42 426.45h4.82v8.52h-4.82z"/></clipPath><clipPath id="clip-path-18" transform="translate(-2156.52 -263)"><path class="cls-3" transform="rotate(-86.28 2219.68 431.706)" d="M2219.57 427.39h.39v8.52h-.39z"/></clipPath><clipPath id="clip-path-19" transform="translate(-2156.52 -263)"><path class="cls-3" transform="rotate(-86.28 2219.277 437.911)" d="M2219.17 433.6h.39v8.52h-.39z"/></clipPath><clipPath id="clip-path-20" transform="translate(-2156.52 -263)"><path class="cls-3" transform="rotate(-86.28 2219.41 435.672)" d="M2219.12 431.36h.77v8.52h-.77z"/></clipPath><clipPath id="clip-path-21" transform="translate(-2156.52 -263)"><path class="cls-4" d="M2505.86 362.05h99.98v65.31h-99.98z"/></clipPath><clipPath id="clip-path-22" transform="translate(-2156.52 -263)"><path class="cls-4" d="M2505.86 434.34h99.98v26.63h-99.98z"/></clipPath><linearGradient id="linear-gradient" x1="107.33" y1="134.14" x2="470.82" y2="134.14" gradientUnits="userSpaceOnUse"><stop offset="0" stop-color="#78cced"/><stop offset="1" stop-color="#1e8ac1"/></linearGradient><style>.cls-1,.cls-79{fill:#f1f2f2}.cls-24,.cls-75{stroke:#fff}.cls-24,.cls-4,.cls-83{stroke-miterlimit:10}.cls-24,.cls-27,.cls-3,.cls-4,.cls-70,.cls-72,.cls-75,.cls-76,.cls-81,.cls-82,.cls-83,.cls-85{fill:none}.cls-4,.cls-79,.cls-85{stroke:#e6e7e8}.cls-4,.cls-79{stroke-width:.5px}.cls-67{fill:#231f20}.cls-30{fill:#d1d3d4}.cls-25{fill:#bcbec0}.cls-27,.cls-82{stroke:#58595b}.cls-27,.cls-70,.cls-72,.cls-75,.cls-76,.cls-79,.cls-81,.cls-82,.cls-85{stroke-linecap:round;stroke-linejoin:round}.cls-28{fill:#e6e7e8}.cls-30,.cls-32{mix-blend-mode:multiply}.cls-33{fill:#2859a9}.cls-34{fill:#010101}.cls-35{fill:#565656}.cls-36{fill:#787878}.cls-37{fill:#333}.cls-38{fill:#989898}.cls-39{fill:#2bb673}.cls-40{fill:#fbb040}.cls-41{fill:#f3c736}.cls-43{fill:#e69d2d}.cls-44{fill:#d7809b}.cls-47{fill:#f9dcac}.cls-49{fill:#4d4d4d}.cls-52{fill:#939598}.cls-65{fill:#a7a9ac}.cls-68{fill:#fff}.cls-70,.cls-72{stroke:#bcbec0}.cls-70,.cls-75,.cls-81,.cls-82{stroke-width:3px}.cls-76{stroke:#00ace0}.cls-76,.cls-83{stroke-width:4px}.cls-81{stroke:#d1d3d4}.cls-83{stroke:#6dc171}.cls-85{stroke-width:.25px}</style></defs><g style="isolation:isolate"><g id="Layer_2" data-name="Layer 2"><rect x="91.23" y="1" width="393.83" height="271.2" rx="14.8" ry="14.8" stroke="#a7a9ac" stroke-width="2" fill="#231f20" stroke-miterlimit="10"/><path fill="url(#linear-gradient)" d="M107.33 21.43h363.49v225.4H107.33z"/><path d="M2410.12 619.93s1.82 4.37 4.88 4.37h58.46c3.76 0 3.76-4.37 3.76-4.37h-67.1z" transform="translate(-2156.52 -263)" fill="#808285"/><path opacity=".8" fill="#d1d3d4" d="M202.28 226.85h174.9v19.98h-174.9z"/><path stroke="#da1c5c" fill="#414042" stroke-miterlimit="10" d="M244.9 231.44h12.07v12.07H244.9z"/><path stroke="#e69d2d" fill="#414042" stroke-miterlimit="10" d="M263.51 231.44h12.07v12.07h-12.07z"/><path stroke="#27aae1" fill="#414042" stroke-miterlimit="10" d="M282.11 231.44h12.07v12.07h-12.07z"/><path stroke="#ed1c24" fill="#414042" stroke-miterlimit="10" d="M300.72 231.44h12.07v12.07h-12.07z"/><circle cx="343.96" cy="237.47" r="6.04" fill="#1c75bc" stroke-miterlimit="10" stroke="#fff"/><circle cx="325.36" cy="237.47" r="6.04" fill="#808285" stroke-miterlimit="10" stroke="#fff"/><circle cx="362.57" cy="237.47" r="6.04" fill="#57b358" stroke-miterlimit="10" stroke="#fff"/><path class="cls-1" d="M207.69 231.44h12.07v12.07h-12.07z"/><g clip-path="url(#clip-path)"><path fill="#1e8ac1" d="M202.65 228.71h11.08v16.68h-11.08z"/></g><circle cx="232.81" cy="237.59" r="6.04" fill="#ed1c24"/><g clip-path="url(#clip-path-2)"><path fill="#f4eb27" d="M239.44 235.31l-6.63 2.28-3.08 6.04 5.36 1.88 6.97-5.1-2.62-5.1z"/><path fill="#39b54a" d="M230.29 244.34l2.46-6.57-2.7-6.21-4.86 2.94-.5 8.62 5.6 1.22z"/><circle cx="232.81" cy="237.59" r="2.29" stroke-width=".54" fill="#1e8ac1" stroke-miterlimit="10" stroke="#fff"/></g><circle class="cls-24" cx="232.81" cy="237.59" r="6.04"/><path class="cls-25" d="M107.33 21.43h363.49v5.49H107.33z"/><circle cx="110.66" cy="24.18" r="1.97" fill="#414042"/><path class="cls-27" d="M115.6 24.18h22.03M142.69 24.18h13.43M162 24.18h13.44M448.37 24.18h13.43"/><circle class="cls-27" cx="466.8" cy="24.18" r="1.79"/><path class="cls-28" d="M2736 469.8l-.3 15.08h1.07s2.06-8.82 12.09-6 12.35 15.35 8.84 31.77-20.24 13.52-22.78 8.47l-.73 12.94a2.91 2.91 0 011.53-.59c.76 0 20.54 2.64 27.7-13.29 0 0 6.41-16.85 2.13-31.82s-15.38-16.6-28.33-16.27z" transform="translate(-2156.52 -263)"/><path d="M2736.12 469.82l-.3 15.08h1.07s2.06-8.82 12.09-6 12.35 15.35 8.84 31.77-20.33 16.22-22.87 11.17l-.65 10.24a2.91 2.91 0 011.53-.59c.76 0 17.79 2.08 25-13.85 0 0 5.95-15.37 1.67-30.34s-13.34-14.38-26.3-14.05z" transform="translate(-2156.52 -263)" style="mix-blend-mode:multiply" fill="#e6e7e8"/><path class="cls-1" d="M2694.93 451.31c-1 0-34.56-.59-42.13 4.57v95.87l.63 3s14.9 6.44 40.41 6c25.5.9 40.52-5.25 40.52-5.25l.69-3 1.87-95.85c-7.42-5.26-41.01-5.34-41.99-5.34z" transform="translate(-2156.52 -263)"/><path class="cls-30" d="M2733 458.42c0 2-17.24 3.53-38.47 3.32s-38.42-2-38.4-4.06 17.26-4.9 38.48-4.7 38.39 3.4 38.39 5.44z" transform="translate(-2156.52 -263)"/><path d="M2727.11 460.33c-6.84-1.49-18.71-2.83-32.24-3-13.69-.13-25.71 1-32.53 2.39 6.85 1.08 18.7 1.86 32.2 2 13.72.16 25.76-.42 32.57-1.39z" transform="translate(-2156.52 -263)" fill="#603913"/><g class="cls-32"><path class="cls-1" d="M2693.47 443.27s.77-.86 2-2.38a16.43 16.43 0 003.44-6.83 25.74 25.74 0 00.43-5.1c0-.47 0-1-.07-1.44a12.71 12.71 0 00-.19-1.3 11 11 0 00-.8-2.63 29.51 29.51 0 00-3.31-5.18 37.11 37.11 0 01-3.71-5.94 17.75 17.75 0 01-1.84-7.22 19.69 19.69 0 011.2-7c.71-2.11 1.61-4 2.4-5.77l1.15-2.55c.2-.44.31-.79.46-1.17s.26-.77.36-1.16a17.92 17.92 0 00.33-7.71c-.16-.95-.31-1.7-.43-2.21l-.19-.78a.5.5 0 01.95-.31l.32.76c.2.5.5 1.24.79 2.22a19.08 19.08 0 01.75 3.65 16.87 16.87 0 01-.18 4.91c-.07.45-.19.9-.29 1.36s-.27 1-.41 1.38c-.3.93-.65 1.78-1 2.7-.7 1.82-1.4 3.72-2 5.65a16.78 16.78 0 00-.82 5.89 14.34 14.34 0 001.54 5.76 39.4 39.4 0 003.4 5.53 27.35 27.35 0 013.52 5.95 14.22 14.22 0 01.88 3.38 15.25 15.25 0 01.13 1.71v1.51a23.6 23.6 0 01-1 5.75 14.67 14.67 0 01-2.24 4.44 20.32 20.32 0 01-2.48 2.77c-.73.7-1.35 1.21-1.76 1.55l-.63.52a.5.5 0 01-.7-.71z" transform="translate(-2156.52 -263)"/></g><g class="cls-32"><path class="cls-1" d="M2673.7 444.65l.15-.24a5.28 5.28 0 00.39-.67 8.23 8.23 0 00.46-1l.2-.67.16-.76a10.29 10.29 0 00-.06-3.65 11.12 11.12 0 00-.58-2 10.57 10.57 0 00-1-1.84c-.89-1.29-1.8-2.56-2.58-3.91a12.76 12.76 0 01-1.53-4 10.81 10.81 0 01-.18-1.71 12.22 12.22 0 010-1.3c.06-.71.13-1.11.13-1.11a.51.51 0 01.59-.41.51.51 0 01.41.42l.17 1c.07.33.12.73.23 1.17a11.92 11.92 0 00.4 1.45 14.82 14.82 0 001.63 3.35c.74 1.18 1.66 2.47 2.52 3.79a10.59 10.59 0 011.16 2.31 11.14 11.14 0 01.58 2.42 10.81 10.81 0 01-.34 4.35 10.58 10.58 0 01-.67 1.61 9.34 9.34 0 01-.74 1.15 5.2 5.2 0 01-.55.63l-.2.2a.5.5 0 01-.75-.58z" transform="translate(-2156.52 -263)"/></g><g class="cls-32"><path class="cls-1" d="M2719.69 445.88l-.22-.21a6 6 0 01-.58-.64 6.67 6.67 0 01-.78-1.27 6.2 6.2 0 01-.56-1.89 7.13 7.13 0 01.07-2.35 10.3 10.3 0 01.71-2.39c.61-1.56 1.46-3 2.13-4.35.32-.68.62-1.36.91-2.09s.57-1.41.79-2.1.46-1.35.61-2a17.82 17.82 0 00.39-1.77 8.67 8.67 0 00.12-1.46 3.36 3.36 0 000-.58 1.45 1.45 0 00-.09-.47c0-.13-.07-.27-.11-.37l-.14-.25-.12-.22-.08-.15a.49.49 0 01.71-.62l.29.21.35.27a3.62 3.62 0 01.38.45 2.59 2.59 0 01.38.61 3.55 3.55 0 01.32.77 7.42 7.42 0 01.36 1.88 11.58 11.58 0 010 2.17 16.46 16.46 0 01-.36 2.34c-.18.79-.4 1.6-.66 2.41a22.14 22.14 0 01-1 2.42c-.76 1.58-1.66 2.94-2.33 4.18a14.86 14.86 0 00-.82 1.76 7.53 7.53 0 00-.39 1.58 6.51 6.51 0 000 1.4 9.71 9.71 0 00.22 1.11c.08.32.21.61.27.79l.1.29a.51.51 0 01-.87.54z" transform="translate(-2156.52 -263)"/></g><path class="cls-33" d="M2706.14 489.65a4.68 4.68 0 004.68-2.3 4.34 4.34 0 10-7.41-4.47 4.67 4.67 0 00.18 5.25c-3.84-1.44-7.32.63-7.67 1.21s2.17 2.88 5.71 5 6.76 3.28 7.1 2.71.55-4.67-2.59-7.4z" transform="translate(-2156.52 -263)"/><path class="cls-34" d="M2683 489.65a4.68 4.68 0 01-4.68-2.3 4.34 4.34 0 117.41-4.47 4.67 4.67 0 01-.18 5.25c3.84-1.44 7.32.63 7.67 1.21s-2.17 2.88-5.71 5-6.76 3.28-7.1 2.71-.53-4.67 2.59-7.4z" transform="translate(-2156.52 -263)"/><path class="cls-35" d="M2683.68 522.74a4.11 4.11 0 00-4.14 2.11 4 4 0 106.94 3.87 4.11 4.11 0 00-.41-4.66c3.56 1.23 7-.66 7.25-1.2.16-.33-2.68-2.22-6-4.07s-6.31-3.08-6.41-2.82a7.63 7.63 0 002.77 6.77z" transform="translate(-2156.52 -263)"/><path class="cls-36" d="M2705.44 522.74a4.11 4.11 0 014.14 2.11 4 4 0 11-6.94 3.87 4.11 4.11 0 01.41-4.66c-3.56 1.23-7-.66-7.25-1.2-.16-.33 2.68-2.22 6-4.07s6.31-3.08 6.41-2.82a7.63 7.63 0 01-2.77 6.77z" transform="translate(-2156.52 -263)"/><path class="cls-37" d="M2674.64 505.34a4.5 4.5 0 00-4.07-2.83 4.19 4.19 0 104.08 5.6 7.82 7.82 0 005 5.71c.62 0 .89-3.29.89-7.15s-.73-7.44-1.35-7.44-3.88 2.28-4.55 6.11z" transform="translate(-2156.52 -263)"/><path class="cls-38" d="M2714.52 505.34a4.5 4.5 0 014.07-2.83 4.19 4.19 0 11-4.08 5.6 7.82 7.82 0 01-5 5.71c-.62 0-.89-3.29-.89-7.15s.73-7.44 1.35-7.44 3.88 2.28 4.55 6.11z" transform="translate(-2156.52 -263)"/><path class="cls-39" d="M2206.92 459.28c-.79 0-28-.47-34.09 3.7l4.88 77.57.51 2.42s7.2 5.21 27.84 4.88c20.64.73 27.93-4.25 27.93-4.25l.56-2.41 6.37-77.55c-6.04-4.3-33.21-4.36-34-4.36z" transform="translate(-2156.52 -263)"/><path class="cls-30" d="M2237.73 465c0 1.65-14 2.85-31.13 2.69s-31.08-1.64-31.07-3.29 14-4 31.14-3.8 31.07 2.79 31.06 4.4z" transform="translate(-2156.52 -263)"/><path class="cls-40" transform="rotate(-6.19 -1318.485 20286.908)" d="M2186.56 429.18h8.52v94.7h-8.52z"/><path class="cls-41" transform="rotate(-6.19 -1315.501 20286.606)" d="M2192.51 428.86h2.56v94.7h-2.56z"/><path class="cls-43" transform="rotate(-6.19 -1321.562 20287.206)" d="M2186.58 429.51h2.35v94.7h-2.35z"/><rect class="cls-44" x="2192.46" y="528.51" width="8.52" height="4.82" rx="1.64" ry="1.64" transform="rotate(-6.19 -1312.615 20341.294)"/><path class="cls-47" d="M2183.82 429.7c.6 0 .88 1.66 1.87 1.55s1.14-1.47 1.73-1.78c.36-.19.78 1 1.41 1a1.68 1.68 0 001.15-1.21v-.21l-.12-.21-5.23-9.55-3 10.29-.12.4.07.65a1.39 1.39 0 001.08.52c.73-.08.72-1.38 1.18-1.41" transform="translate(-2156.52 -263)"/><path class="cls-49" d="M2183.77 422.08a4.3 4.3 0 002.25-.27l-1.42-2.59" transform="translate(-2156.52 -263)"/><path class="cls-52" transform="rotate(83.81 1264.544 -805.973)" d="M2192.78 522.87h7.08v8.51h-7.08z"/><path class="cls-25" transform="rotate(83.81 1264.546 -805.904)" d="M2193.7 522.92h5.23v8.52h-5.23z"/><path class="cls-40" transform="rotate(-81.48 997.308 1605.642)" d="M2180.9 481.04h94.7v8.52h-94.7z"/><path class="cls-41" transform="rotate(-81.48 994.357 1605.193)" d="M2177.95 483.58h94.7v2.56h-94.7z"/><path class="cls-43" transform="rotate(-81.48 1000.356 1606.093)" d="M2183.95 484.59h94.7v2.35h-94.7z"/><rect class="cls-44" x="2233.94" y="426.94" width="4.82" height="8.52" rx="1.64" ry="1.64" transform="rotate(-81.48 1005.413 1551.529)"/><path class="cls-47" d="M2223.13 532.38c-.6-.11-.43-1.83-1.41-2s-1.47 1.13-2.12 1.28c-.4.09-.49-1.2-1.11-1.29a1.68 1.68 0 00-1.42.88v.2l.06.24 2.63 10.57 5.52-9.19.21-.36.1-.64a1.39 1.39 0 00-.92-.78c-.73-.11-1 1.15-1.5 1.07" transform="translate(-2156.52 -263)"/><path class="cls-49" d="M2221.24 539.76a4.3 4.3 0 00-2.24-.31l.71 2.86" transform="translate(-2156.52 -263)"/><path class="cls-52" transform="rotate(-81.48 1004.842 1555.314)" d="M2232.24 430.72h7.08v8.51h-7.08z"/><path class="cls-25" transform="rotate(-81.48 1004.859 1555.248)" d="M2233.18 430.65h5.23v8.52h-5.23z"/><path class="cls-40" transform="rotate(-86.28 997.6 1504.495)" d="M2168.92 481.04h94.7v8.52h-94.7z"/><path class="cls-41" transform="rotate(-86.28 994.624 1504.302)" d="M2165.95 483.83h94.7v2.56h-94.7z"/><path class="cls-43" transform="rotate(-86.28 1000.674 1504.7)" d="M2172 484.33h94.7v2.35H2172z"/><rect class="cls-44" x="2217.42" y="426.45" width="4.82" height="8.52" rx="1.64" ry="1.64" transform="rotate(-86.28 1001.155 1449.905)"/><path class="cls-47" d="M2215.11 532.64c-.6-.06-.58-1.78-1.57-1.85s-1.37 1.25-2 1.45c-.39.13-.59-1.16-1.22-1.2a1.68 1.68 0 00-1.35 1v.21l.08.23 3.5 10.31 4.74-9.62.18-.37v-.65a1.39 1.39 0 00-1-.7c-.73 0-1 1.23-1.41 1.19" transform="translate(-2156.52 -263)"/><path class="cls-49" d="M2213.84 540.15a4.3 4.3 0 00-2.26-.12l.95 2.79" transform="translate(-2156.52 -263)"/><path class="cls-52" transform="rotate(-86.28 1000.897 1453.72)" d="M2216.04 430.27h7.08v8.51h-7.08z"/><path class="cls-25" transform="rotate(-86.28 1000.91 1453.653)" d="M2216.97 430.19h5.23v8.52h-5.23z"/><path class="cls-39" d="M2206.6 467.72c-.79 0-30.51.34-33.77-4.74l4.88 77.57.51 2.42s7.2 5.21 27.84 4.88c20.64.73 27.93-4.25 27.93-4.25l.56-2.41 6.37-77.55c-4.55 5.04-33.53 4.09-34.32 4.08z" transform="translate(-2156.52 -263)"/><path class="cls-65" d="M2719.36 626h-548.5c-10.62 0-17.08-10.39-13.2-14.09l90.86-78.49c1.79-1.71 8.89-3.07 15.88-3.07h361.42c7 0 14.1 1.36 15.88 3.07l89.78 77c3.88 3.76-1.48 15.58-12.12 15.58z" transform="translate(-2156.52 -263)"/><path d="M2719.36 617.26h-548.5c-10.62 0-16-3.08-12.13-6.79l89.78-85.79c1.79-1.71 8.89-3.07 15.88-3.07h361.42c7 0 14.1 1.36 15.88 3.07l89.78 85.79c3.89 3.71-1.47 6.79-12.11 6.79z" transform="translate(-2156.52 -263)" fill="#d1d3d4"/><path class="cls-67" d="M436.05 261.46H141.49l2.23-2.85h290.09l2.24 2.85z"/><path class="cls-65" d="M96.67 299.89H60.95l34.13-33.9h30.36l-28.77 33.9zM516.66 299.89h-35.72l-28.84-33.9h30.36l34.2 33.9z"/><path class="cls-65" d="M2519.07 607.86H2371c-4.47 0-7.72-1.26-7.25-2.8l9.39-31c.36-1.19 3.8-2.15 7.68-2.15h128.42c3.88 0 7.32 1 7.68 2.15l9.38 31c.48 1.54-2.76 2.8-7.23 2.8z" transform="translate(-2156.52 -263)"/><path class="cls-67" d="M2310.89 531.77h-17.66c-.53 0-.87-.11-.77-.24l1.81-2.31a2 2 0 011.13-.23h17.41c.52 0 .87.1.78.23l-1.58 2.31a1.89 1.89 0 01-1.12.24zM2332.94 531.77h-17.66c-.53 0-.89-.11-.8-.24l1.55-2.31a1.86 1.86 0 011.1-.23h17.41c.52 0 .89.1.81.23l-1.32 2.31a1.76 1.76 0 01-1.09.24zM2355 531.77h-17.66c-.53 0-.9-.11-.82-.24l1.29-2.31a1.72 1.72 0 011.08-.23h17.41c.52 0 .9.1.84.23l-1.06 2.31a1.62 1.62 0 01-1.08.24zM2377 531.77h-17.66c-.53 0-.91-.11-.85-.24l1-2.31a1.59 1.59 0 011-.23H2378a.87.87 0 01.86.23l-.79 2.31a1.5 1.5 0 01-1.07.24zM2399.08 531.77h-17.66a.88.88 0 01-.88-.24l.77-2.31a1.47 1.47 0 011-.23h17.41a1 1 0 01.89.23l-.53 2.31a1.38 1.38 0 01-1 .24zM2421.13 531.77h-17.66a1 1 0 01-.91-.24l.5-2.31a1.36 1.36 0 011-.23h17.41a1 1 0 01.92.23l-.27 2.31a1.27 1.27 0 01-.99.24zM2443.17 531.77h-17.66a1.06 1.06 0 01-.93-.24l.24-2.31a1.25 1.25 0 011-.23h17.41a1.15 1.15 0 01.94.23v2.31a1.16 1.16 0 01-1 .24zM2465.22 531.77h-17.66a1.16 1.16 0 01-1-.24v-2.31a1.14 1.14 0 01.94-.23h17.41a1.25 1.25 0 011 .23l.25 2.31a1.06 1.06 0 01-.94.24zM2487.27 531.77h-17.66a1.27 1.27 0 01-1-.24l-.28-2.31a1 1 0 01.92-.23h17.41a1.36 1.36 0 011 .23l.51 2.31a1 1 0 01-.9.24zM2509.31 531.77h-17.66a1.38 1.38 0 01-1-.24l-.54-2.31a1 1 0 01.89-.22h17.41a1.48 1.48 0 011 .23l.77 2.31a.88.88 0 01-.87.23zM2531.36 531.77h-17.66a1.5 1.5 0 01-1-.24l-.8-2.31a.87.87 0 01.86-.23h17.41a1.6 1.6 0 011.05.23l1 2.31c.05.13-.33.24-.86.24zM2553.41 531.77h-17.66a1.63 1.63 0 01-1.07-.24l-1.06-2.31c-.06-.13.32-.23.84-.23h17.41a1.73 1.73 0 011.08.23l1.29 2.31c.06.13-.3.24-.83.24zM2575.45 531.77h-17.66a1.76 1.76 0 01-1.1-.24l-1.32-2.31c-.07-.13.29-.23.81-.23h17.41a1.86 1.86 0 011.1.23l1.55 2.31c.1.13-.24.24-.79.24zM2597.5 531.77h-17.66a1.9 1.9 0 01-1.12-.24l-1.58-2.31c-.09-.13.26-.23.78-.23h17.41a2 2 0 011.13.23l1.82 2.31c.09.13-.28.24-.78.24zM2306.78 537h-17.36c-.68 0-1.11-.14-1-.32l3.08-3.93a2.52 2.52 0 011.43-.3h17c.66 0 1.1.14 1 .3l-2.69 3.93a2.4 2.4 0 01-1.46.32zM2328.64 537h-17.36c-.68 0-1.13-.14-1-.32l2.65-3.93a2.34 2.34 0 011.4-.3h17c.66 0 1.12.14 1 .3l-2.26 3.93a2.22 2.22 0 01-1.43.32zM2350.51 537h-17.36c-.68 0-1.14-.14-1-.32l2.22-3.93a2.17 2.17 0 011.37-.3h17c.66 0 1.13.14 1.05.3l-1.83 3.93a2.06 2.06 0 01-1.45.32zM2394.24 537h-17.36c-.68 0-1.17-.14-1.11-.32l1.36-3.93a1.86 1.86 0 011.3-.3h17a1.17 1.17 0 011.12.3l-1 3.93a1.76 1.76 0 01-1.31.32zM2372.38 537H2355c-.68 0-1.16-.14-1.08-.32l1.79-3.93a2 2 0 011.33-.3h17c.66 0 1.15.14 1.09.3l-1.4 3.93a1.9 1.9 0 01-1.35.32zM2416.08 537.17h-17.38c-.68 0-1.19-.14-1.15-.32l.94-3.94a1.72 1.72 0 011.27-.3h17a1.29 1.29 0 011.15.3l-.55 3.94a1.62 1.62 0 01-1.28.32zM2438 537.17h-17.38a1.31 1.31 0 01-1.18-.32l.51-3.94a1.59 1.59 0 011.23-.3h17a1.4 1.4 0 011.19.3l-.12 3.94a1.49 1.49 0 01-1.25.32zM2459.84 537h-17.36a1.43 1.43 0 01-1.22-.32l.08-3.93a1.46 1.46 0 011.2-.3h17a1.53 1.53 0 011.22.3l.31 3.93a1.36 1.36 0 01-1.23.32zM2481.7 537h-17.36a1.56 1.56 0 01-1.25-.32l-.35-3.93a1.34 1.34 0 011.17-.3h17a1.66 1.66 0 011.25.3l.74 3.93a1.24 1.24 0 01-1.2.32zM2503.57 537h-17.37a1.69 1.69 0 01-1.29-.32l-.78-3.93a1.22 1.22 0 011.13-.3h17a1.8 1.8 0 011.28.3l1.17 3.93c.04.15-.47.32-1.14.32zM2525.43 537h-17.36a1.84 1.84 0 01-1.32-.32l-1.21-3.93c-.05-.17.44-.3 1.1-.3h17a2 2 0 011.32.3l1.6 3.93c.04.15-.45.32-1.13.32zM2547.3 537h-17.36a2 2 0 01-1.35-.32l-1.64-3.93c-.07-.17.41-.3 1.07-.3h17a2.1 2.1 0 011.35.3l2 3.93c.08.15-.37.32-1.07.32zM2569.16 537h-17.36a2.15 2.15 0 01-1.39-.32l-2.07-3.93c-.09-.17.38-.3 1-.3h17a2.27 2.27 0 011.38.3l2.46 3.93c.12.15-.34.32-1.02.32zM2600.9 537h-27a2.85 2.85 0 01-1.75-.39l-2.41-3.79c-.13-.21.42-.37 1.23-.37h26.34a3.1 3.1 0 011.76.37l3 3.79c.2.19-.34.39-1.17.39zM2289 562.6h-19.38c-.82 0-1.33-.19-1.15-.43l4.57-5.82a3 3 0 011.76-.41h18.8c.8 0 1.32.18 1.16.41l-4 5.82a2.81 2.81 0 01-1.76.43zM2313.63 562.6h-19.38c-.82 0-1.35-.19-1.19-.43l3.93-5.82a2.73 2.73 0 011.72-.41h18.8c.8 0 1.34.18 1.21.41l-3.35 5.82a2.6 2.6 0 01-1.74.43zM2338.29 562.6h-19.38c-.82 0-1.38-.19-1.24-.43l3.29-5.82a2.52 2.52 0 011.67-.41h18.8c.8 0 1.36.18 1.25.41l-2.72 5.82a2.39 2.39 0 01-1.67.43zM2368.57 562.6h-24.81c-.92 0-1.57-.22-1.45-.48l2.61-5.72a2.6 2.6 0 011.83-.46h24.07c.89 0 1.55.2 1.47.46l-1.9 5.72a2.41 2.41 0 01-1.82.48zM2489.45 562.88h-112.09c-1.89 0-3.29-.45-3.11-1l1.49-4.74c.16-.52 1.79-.95 3.62-.95h108.77c1.84 0 3.42.42 3.53.95l1 4.74c.12.56-1.32 1-3.21 1zM2521.81 562.6h-23.58a2.17 2.17 0 01-1.73-.47l-1.31-5.74c-.06-.25.6-.45 1.48-.45h22.88a2.34 2.34 0 011.73.45l2 5.74c.08.26-.57.47-1.47.47zM2547.82 562.6h-19.38a2.2 2.2 0 01-1.64-.43l-2.11-5.82c-.08-.23.5-.41 1.29-.41h18.8a2.33 2.33 0 011.63.41l2.69 5.82c.11.24-.46.43-1.28.43zM2336.46 542.66h-17.86c-.69 0-1.16-.15-1.05-.33l2.58-4.16a2.3 2.3 0 011.43-.32H2339c.68 0 1.15.14 1.06.32l-2.17 4.16a2.18 2.18 0 01-1.43.33zM2358.95 542.66h-17.86c-.69 0-1.18-.15-1.09-.33l2.13-4.16a2.13 2.13 0 011.39-.32H2361c.68 0 1.17.14 1.1.32l-1.71 4.16a2 2 0 01-1.44.33zM2381.44 542.66h-17.86c-.69 0-1.2-.15-1.12-.33l1.67-4.16a2 2 0 011.36-.32h17.44c.68 0 1.18.14 1.13.32l-1.26 4.16a1.86 1.86 0 01-1.36.33zM2426.41 542.66h-17.86c-.69 0-1.23-.15-1.2-.33l.76-4.16a1.67 1.67 0 011.29-.32h17.44a1.35 1.35 0 011.2.32l-.35 4.16a1.57 1.57 0 01-1.28.33zM2403.92 542.66h-17.86c-.69 0-1.21-.15-1.16-.33l1.22-4.16a1.82 1.82 0 011.32-.32h17.44a1.24 1.24 0 011.17.32l-.81 4.16a1.71 1.71 0 01-1.32.33zM2448.9 542.87H2431a1.38 1.38 0 01-1.23-.33l.31-4.16a1.54 1.54 0 011.25-.32h17.46a1.48 1.48 0 011.24.32l.1 4.16a1.44 1.44 0 01-1.23.33zM2471.41 542.87h-17.88a1.51 1.51 0 01-1.27-.33l-.14-4.16a1.41 1.41 0 011.22-.32h17.46a1.61 1.61 0 011.27.32l.56 4.16a1.31 1.31 0 01-1.22.33zM2493.87 542.66H2476a1.64 1.64 0 01-1.31-.33l-.6-4.16a1.29 1.29 0 011.18-.32h17.44a1.75 1.75 0 011.31.32l1 4.16c.07.19-.46.33-1.15.33zM2516.36 542.66h-17.86a1.79 1.79 0 01-1.34-.33l-1.05-4.16c0-.18.47-.32 1.15-.32h17.44a1.9 1.9 0 011.34.32l1.46 4.16c.06.19-.45.33-1.14.33zM2538.84 542.66H2521a1.94 1.94 0 01-1.38-.33l-1.51-4.16c-.06-.18.43-.32 1.11-.32h17.44a2.05 2.05 0 011.37.32l1.92 4.16c.05.19-.41.33-1.11.33zM2561.33 542.66h-17.86a2.1 2.1 0 01-1.41-.33l-2-4.16c-.08-.18.4-.32 1.08-.32h17.44a2.22 2.22 0 011.41.32l2.37 4.16c.14.19-.36.33-1.03.33zM2583.82 542.66H2566a2.27 2.27 0 01-1.45-.33l-2.41-4.16c-.1-.18.36-.32 1-.32h17.44a2.39 2.39 0 011.44.32l2.83 4.16c.15.19-.34.33-1.03.33zM2606.3 542.66h-17.86a2.45 2.45 0 01-1.49-.33l-2.87-4.16c-.12-.18.33-.32 1-.32h17.44a2.57 2.57 0 011.48.32l3.28 4.16c.16.19-.28.33-.98.33zM2313 542.66h-27.72c-.85 0-1.4-.18-1.23-.41l3.14-4a3.15 3.15 0 011.82-.39h27.08c.83 0 1.4.18 1.26.39l-2.54 4a2.9 2.9 0 01-1.81.41zM2349 555.07h-19c-.74 0-1.24-.17-1.13-.37l2.49-4.67a2.24 2.24 0 011.49-.36h18.47c.72 0 1.23.16 1.14.36l-2 4.67a2.12 2.12 0 01-1.46.37zM2372.82 555.07h-18.93c-.74 0-1.26-.17-1.17-.37l2-4.67a2.07 2.07 0 011.45-.36h18.47c.72 0 1.25.16 1.18.36l-1.52 4.67a2 2 0 01-1.48.37zM2396.66 555.07h-18.93c-.74 0-1.28-.17-1.22-.37l1.49-4.7a1.9 1.9 0 011.41-.36h18.47c.72 0 1.27.16 1.22.36l-1 4.67a1.79 1.79 0 01-1.44.4zM2444.35 555.07h-18.93c-.74 0-1.32-.17-1.3-.37l.45-4.67a1.6 1.6 0 011.33-.36h18.47a1.48 1.48 0 011.3.36v4.67a1.5 1.5 0 01-1.32.37zM2420.5 555.07h-18.93c-.74 0-1.3-.17-1.26-.37l1-4.67a1.75 1.75 0 011.37-.36h18.47a1.35 1.35 0 011.26.36l-.5 4.67a1.64 1.64 0 01-1.41.37zM2468.21 555.3h-19a1.52 1.52 0 01-1.34-.38l-.06-4.68a1.47 1.47 0 011.3-.36h18.48a1.62 1.62 0 011.34.36l.52 4.68c.08.21-.5.38-1.24.38zM2492.08 555.3h-19a1.66 1.66 0 01-1.38-.38l-.57-4.68c0-.2.54-.36 1.26-.36h18.48a1.77 1.77 0 011.38.36l1 4.68c.13.21-.43.38-1.17.38zM2515.87 555.07h-18.93a1.81 1.81 0 01-1.42-.37l-1.08-4.67c0-.2.5-.36 1.22-.36h18.47a1.93 1.93 0 011.42.36l1.54 4.67c.06.21-.48.37-1.22.37zM2539.72 555.07h-18.93a2 2 0 01-1.46-.37l-1.59-4.67c-.07-.2.46-.36 1.18-.36h18.47a2.09 2.09 0 011.46.36l2.05 4.67c.1.21-.45.37-1.18.37zM2563.56 555.07h-18.93a2.14 2.14 0 01-1.5-.37L2541 550c-.09-.2.42-.36 1.14-.36h18.47a2.27 2.27 0 011.5.36l2.56 4.67c.13.24-.38.4-1.11.4zM2614.61 555.07h-45.46a3.52 3.52 0 01-2.33-.57l-2.4-4.29c-.17-.3.58-.54 1.67-.54h44.34a4.05 4.05 0 012.39.54l3.37 4.29c.24.32-.46.57-1.58.57zM2323.68 555.07h-47.61c-1.14 0-1.86-.26-1.61-.58l3.34-4.26a4.14 4.14 0 012.45-.55h46.43c1.11 0 1.88.25 1.71.55l-2.33 4.26a3.57 3.57 0 01-2.38.58zM2338.53 548.49h-18.36c-.71 0-1.2-.16-1.08-.35l2.62-4.39a2.3 2.3 0 011.46-.34h17.92c.7 0 1.19.15 1.09.34l-2.18 4.39a2.18 2.18 0 01-1.47.35zM2361.65 548.49h-18.36c-.71 0-1.22-.16-1.12-.35l2.14-4.39a2.13 2.13 0 011.43-.34h17.92c.7 0 1.2.15 1.13.34l-1.7 4.39a2 2 0 01-1.44.35zM2384.78 548.49h-18.36c-.71 0-1.23-.16-1.16-.35l1.66-4.39a2 2 0 011.39-.34h17.92c.7 0 1.22.15 1.17.34l-1.22 4.39a1.85 1.85 0 01-1.4.35zM2431 548.49h-18.36c-.71 0-1.27-.16-1.24-.35l.7-4.39a1.66 1.66 0 011.32-.34h17.92a1.39 1.39 0 011.24.34l-.27 4.39a1.56 1.56 0 01-1.31.35zM2407.9 548.49h-18.36c-.71 0-1.25-.16-1.2-.35l1.18-4.39a1.81 1.81 0 011.35-.34h17.92c.7 0 1.24.15 1.2.34l-.75 4.39a1.7 1.7 0 01-1.34.35zM2454.16 548.7h-18.38a1.42 1.42 0 01-1.28-.35l.22-4.4a1.52 1.52 0 011.28-.34h17.94a1.52 1.52 0 011.28.34l.21 4.4a1.42 1.42 0 01-1.27.35zM2477.3 548.7h-18.38a1.56 1.56 0 01-1.31-.35l-.26-4.4a1.39 1.39 0 011.24-.34h17.94a1.66 1.66 0 011.32.34l.7 4.4c.02.19-.55.35-1.25.35zM2500.39 548.49H2482a1.7 1.7 0 01-1.35-.35l-.74-4.39c0-.19.51-.34 1.21-.34h17.92a1.81 1.81 0 011.35.34l1.17 4.39c.08.19-.45.35-1.17.35zM2523.51 548.49h-18.36a1.85 1.85 0 01-1.39-.35l-1.22-4.39c-.05-.19.47-.34 1.17-.34h17.92a2 2 0 011.39.34l1.65 4.39c.08.19-.44.35-1.16.35zM2546.64 548.49h-18.36a2 2 0 01-1.43-.35l-1.7-4.39c-.07-.19.43-.34 1.13-.34h17.92a2.13 2.13 0 011.43.34l2.13 4.39c.09.19-.41.35-1.12.35zM2569.76 548.49h-18.36a2.18 2.18 0 01-1.47-.35l-2.18-4.39c-.09-.19.4-.34 1.09-.34h17.92a2.3 2.3 0 011.46.34l2.61 4.39c.17.19-.36.35-1.07.35zM2609.71 548.49H2575a3.18 3.18 0 01-2-.48l-2.51-4.15c-.15-.25.49-.46 1.43-.46h33.9a3.54 3.54 0 012.06.46l3.26 4.15c.14.26-.47.48-1.43.48zM2314.28 548.49h-33.4c-.95 0-1.55-.21-1.35-.47l3.27-4.17a3.47 3.47 0 012-.45h32.6c.92 0 1.55.2 1.4.45l-2.54 4.17a3.14 3.14 0 01-1.98.47zM2573.09 562.73h-20.46a1.79 1.79 0 01-1.26-.32l-1.46-3.09c-.08-.17.34-.31.95-.31H2571a1.91 1.91 0 011.27.31l1.77 3.09c.08.17-.34.32-.95.32zM2621.7 562.73h-20.46a2.11 2.11 0 01-1.33-.32l-2.12-3.09c-.12-.17.27-.31.88-.31h20.13a2.23 2.23 0 011.34.31l2.43 3.09c.12.17-.26.32-.87.32zM2597 562.73h-19.67a2.65 2.65 0 01-1.76-.44l-3.43-5.94c-.13-.23.42-.41 1.22-.41h19.08a2.78 2.78 0 011.75.41l4 5.94c.18.24-.36.44-1.19.44z" transform="translate(-2156.52 -263)"/><path class="cls-68" d="M129.86 50.93h325.81V220.4H129.86z"/><path class="cls-28" d="M2287.8 313.93a1.42 1.42 0 01-1.42-1.42V304a7.4 7.4 0 01.62-2.69l2.45-5.09a2.47 2.47 0 012-1.28h56.21a2.28 2.28 0 011.95 1.31l1.92 4.75a2.28 2.28 0 001.95 1.31h257.27a1.42 1.42 0 011.42 1.42v8.81a1.42 1.42 0 01-1.42 1.42h-323z" transform="translate(-2156.52 -263)"/><rect x="158.73" y="41.42" width="287.35" height="7.34" rx="1.42" ry="1.42" stroke="#e6e7e8" fill="none" stroke-miterlimit="10"/><path class="cls-70" d="M136.55 35.22h45.74"/><path stroke-width="8" stroke-linecap="round" stroke-linejoin="round" stroke="#58595b" fill="none" d="M136.55 76.31h60.92"/><path class="cls-72" d="M140.04 44.76h4.51M142.87 42.47l2.3 2.29-2.22 2.22M136.55 44.69h-4.51M133.72 46.98l-2.29-2.29 2.22-2.22"/><path class="cls-72" d="M2310.55 307.25l1.33.43a2.78 2.78 0 10-2.78 2.78" transform="translate(-2156.52 -263)"/><path class="cls-72" d="M156.12 43.52l-.75 1.17"/><path fill="#f9ed32" d="M442.41 41.94l.87 1.77 1.95.28-1.41 1.38.33 1.94-1.74-.92-1.75.92.34-1.94-1.42-1.38 1.95-.28.88-1.77z"/><path class="cls-72" d="M448.37 43.05h4.86M448.37 44.62h4.86M448.37 46.2h4.86"/><path fill="#00ace0" d="M129.86 50.93h325.81v12.82H129.86z"/><path class="cls-75" d="M155.37 57.34h13.35"/><path class="cls-76" d="M152.05 144.5h13.36"/><path class="cls-75" d="M182.29 57.34h13.36M209.9 57.34h13.35M266.55 57.34h13.35M236.83 57.34h19.01M292.9 57.34h15.86M384.63 57.34h42.69"/><circle class="cls-68" cx="442.61" cy="57.36" r="2.06"/><path stroke-linecap="round" stroke-linejoin="round" stroke="#e6e7e8" fill="none" d="M135.32 89.33H450.8"/><g clip-path="url(#clip-path-21)"><path class="cls-79" d="M346.17 96.52h106.11v15.22H346.17z"/></g><path class="cls-4" d="M349.34 99.05h99.98v65.31h-99.98z"/><g clip-path="url(#clip-path-22)"><path class="cls-79" d="M346.17 169.44h106.11v15.22H346.17z"/></g><path class="cls-4" d="M349.34 171.34h99.98v26.63h-99.98zM349.34 124.84h99.98M349.34 138.16h99.98M349.34 151.26h99.98"/><path class="cls-81" d="M354.48 118.29h55.36M354.48 131.71h55.36M354.48 144.5h52.43M354.48 191.21h48.66M354.48 157.81h59.69"/><path class="cls-82" d="M355.57 104.97h25.16M355.57 178.32h15.06"/><circle class="cls-83" cx="158.73" cy="118.18" r="14.48"/><path class="cls-24" d="M158.73 99.05v11.42"/><path class="cls-76" d="M205.27 144.5h13.35"/><circle class="cls-83" cx="211.95" cy="118.18" r="14.48"/><path class="cls-24" d="M211.95 99.05v11.42"/><path class="cls-76" d="M258.43 144.5h15.82"/><circle class="cls-83" cx="266.55" cy="118.18" r="14.48"/><path class="cls-24" d="M266.55 99.05v11.42"/><path class="cls-76" d="M311.27 144.5h15.82"/><circle class="cls-83" cx="319.39" cy="118.18" r="14.48"/><path class="cls-24" d="M319.39 99.05v11.42"/><path class="cls-79" d="M129.86 208.17h325.81v12.23H129.86z"/><path class="cls-82" d="M135.18 214.29h34.52M390.89 214.29h12.25"/><path stroke="#00ace0" stroke-width="3" stroke-linecap="round" stroke-linejoin="round" fill="none" d="M408.04 214.29h41.28"/><path class="cls-85" d="M164.71 47.47h-3.18v-5h1.95l-.08 1.5 1.31-.08v3.58zM163.48 42.47l1.23 1.42"/><path class="cls-70" d="M192.61 45.09h24.63"/><path class="cls-82" d="M167.01 45.09h21.11"/><path class="cls-33" d="M2296.22 317.93a.7.7 0 00.7-.34.65.65 0 10-1.11-.67.7.7 0 000 .79 1.16 1.16 0 00-1.15.18 3.22 3.22 0 001.92 1.16 1.16 1.16 0 00-.36-1.12z" transform="translate(-2156.52 -263)"/><path class="cls-34" d="M2292.76 317.93a.7.7 0 01-.7-.34.65.65 0 111.11-.67.7.7 0 010 .79 1.16 1.16 0 011.15.18 3.22 3.22 0 01-1.92 1.16 1.16 1.16 0 01.36-1.12z" transform="translate(-2156.52 -263)"/><path class="cls-35" d="M2292.86 322.89a.62.62 0 00-.62.32.6.6 0 101 .58.62.62 0 00-.06-.7 1.15 1.15 0 001.09-.18 5.88 5.88 0 00-1.86-1 1.14 1.14 0 00.45.98z" transform="translate(-2156.52 -263)"/><path class="cls-36" d="M2296.12 322.89a.62.62 0 01.62.32.6.6 0 11-1 .58.62.62 0 01.06-.7 1.15 1.15 0 01-1.09-.18 5.88 5.88 0 011.86-1 1.14 1.14 0 01-.45.98z" transform="translate(-2156.52 -263)"/><path class="cls-37" d="M2291.5 320.28a.67.67 0 00-.61-.42.63.63 0 10.61.84 1.17 1.17 0 00.75.86 2.06 2.06 0 00.13-1.07 2 2 0 00-.2-1.11 1.23 1.23 0 00-.68.9z" transform="translate(-2156.52 -263)"/><path class="cls-38" d="M2297.48 320.28a.67.67 0 01.61-.42.63.63 0 11-.61.84 1.17 1.17 0 01-.75.86 2.06 2.06 0 01-.13-1.07 2 2 0 01.2-1.11 1.23 1.23 0 01.68.9z" transform="translate(-2156.52 -263)"/></g></g></svg>