<svg xmlns="http://www.w3.org/2000/svg" xmlns:xlink="http://www.w3.org/1999/xlink" width="1000" height="1000"><defs><linearGradient id="a"><stop offset="0" stop-color="#fff" stop-opacity=".2"/><stop offset="1" stop-color="#fff" stop-opacity="0"/></linearGradient><linearGradient xlink:href="#a" id="c" x1="152" y1="175" x2="616" y2="590" gradientUnits="userSpaceOnUse" gradientTransform="matrix(2.1322 0 0 2.40385 -321.962 -420.673)"/><clipPath clipPathUnits="userSpaceOnUse" id="b"/></defs><path d="M244.638 375.142c-3.9 0-68.22 26.984-80.878 99.463a75.824 71.629 0 00-70.793-46.008 75.824 71.629 0 00-75.825 71.63 75.824 71.629 0 0075.825 71.625 75.824 71.629 0 0070.826-46.28c12.733 72.344 76.947 99.286 80.845 99.286 7.623 0 17.1-47.992 17.106-124.82v-.079c-.006-76.825-9.483-124.817-17.106-124.817z" fill="#424242" stroke-width=".284"/><path d="M265.151 338.407c-1.94-3.36-10.685-72.193 45.46-119.148a75.428 71.254 60 01-74.848-38.105 75.428 71.254 60 0123.995-100.95 75.428 71.254 60 0199.419 29.697 75.428 71.254 60 01-4.642 84.036c68.657-25.013 123.807 16.907 125.746 20.265 3.791 6.567-32.84 38.601-99.024 76.82l-.033.02-.034.019c-66.189 38.207-112.248 53.913-116.04 47.346z" fill="#212121" stroke-width=".282"/><path d="M265.151 662.56c-1.94 3.36-10.685 72.193 45.46 119.148a71.254 75.428 30 00-74.848 38.105 71.254 75.428 30 0023.995 100.95 71.254 75.428 30 0099.419-29.697 71.254 75.428 30 00-4.642-84.036c68.657 25.013 123.807-16.907 125.746-20.265 3.791-6.567-32.84-38.601-99.024-76.82l-.033-.02-.034-.019c-66.189-38.207-112.248-53.913-116.04-47.346z" fill="#616161" stroke-width=".282"/><path d="M755.247 624.858c3.901 0 68.22-26.984 80.879-99.463a75.824 71.629 0 0070.793 46.008 75.824 71.629 0 0075.825-71.63 75.824 71.629 0 00-75.825-71.625 75.824 71.629 0 00-70.827 46.28c-12.732-72.344-76.947-99.286-80.845-99.286-7.623 0-17.099 47.992-17.105 124.82v.079c.006 76.825 9.482 124.817 17.105 124.817z" fill="#9e9e9e" stroke-width=".284"/><path d="M735.54 662.56c1.94 3.36 10.685 72.193-45.46 119.148a75.428 71.254 60 0174.848 38.105 75.428 71.254 60 01-23.995 100.95 75.428 71.254 60 01-99.419-29.697 75.428 71.254 60 014.642-84.036c-68.657 25.013-123.807-16.907-125.746-20.265-3.791-6.567 32.841-38.601 99.024-76.82l.033-.02.034-.019c66.189-38.207 112.248-53.913 116.04-47.346z" fill="#757575" stroke-width=".282"/><path d="M735.54 338.407c1.94-3.36 10.685-72.193-45.46-119.148a71.254 75.428 30 0074.848-38.105 71.254 75.428 30 00-23.995-100.95 71.254 75.428 30 00-99.419 29.697 71.254 75.428 30 004.642 84.036c-68.657-25.013-123.807 16.907-125.746 20.265-3.791 6.567 32.841 38.601 99.024 76.82l.033.02.034.019c66.189 38.207 112.248 53.913 116.04 47.346z" fill="#0d47a1" stroke-width=".282"/><g><path clip-path="url(#b)" fill="url(#c)" stroke-width=".1" d="M0 0h1000v1000H0z"/></g></svg>