<svg xmlns="http://www.w3.org/2000/svg" xmlns:xlink="http://www.w3.org/1999/xlink" viewBox="0 0 610.5 363.04"><defs><style>.cls-1,.cls-79{fill:#f1f2f2;}.cls-19,.cls-2{fill:#ed1c24;}.cls-14,.cls-15,.cls-16,.cls-2,.cls-23,.cls-24,.cls-75{stroke:#fff;}.cls-10,.cls-11,.cls-12,.cls-13,.cls-14,.cls-15,.cls-16,.cls-2,.cls-23,.cls-24,.cls-4,.cls-6,.cls-69,.cls-83{stroke-miterlimit:10;}.cls-24,.cls-27,.cls-3,.cls-4,.cls-69,.cls-70,.cls-71,.cls-72,.cls-75,.cls-76,.cls-77,.cls-81,.cls-82,.cls-83,.cls-84,.cls-85{fill:none;}.cls-4,.cls-69,.cls-77,.cls-79,.cls-85{stroke:#e6e7e8;}.cls-4,.cls-79{stroke-width:0.5px;}.cls-5{isolation:isolate;}.cls-6,.cls-67{fill:#231f20;}.cls-6{stroke:#a7a9ac;stroke-width:2px;}.cls-7{fill:url(#linear-gradient);}.cls-15,.cls-8{fill:#808285;}.cls-30,.cls-66,.cls-9{fill:#d1d3d4;}.cls-9{opacity:0.8;}.cls-10,.cls-11,.cls-12,.cls-13,.cls-26{fill:#414042;}.cls-10{stroke:#da1c5c;}.cls-11{stroke:#e69d2d;}.cls-12{stroke:#27aae1;}.cls-13{stroke:#ed1c24;}.cls-14{fill:#1c75bc;}.cls-16{fill:#57b358;}.cls-17{clip-path:url(#clip-path);}.cls-18,.cls-23{fill:#1e8ac1;}.cls-20{clip-path:url(#clip-path-2);}.cls-21{fill:#f4eb27;}.cls-22{fill:#39b54a;}.cls-23{stroke-width:0.54px;}.cls-25{fill:#bcbec0;}.cls-27,.cls-71,.cls-82{stroke:#58595b;}.cls-27,.cls-70,.cls-71,.cls-72,.cls-75,.cls-76,.cls-77,.cls-79,.cls-81,.cls-82,.cls-84,.cls-85{stroke-linecap:round;stroke-linejoin:round;}.cls-28,.cls-29{fill:#e6e7e8;}.cls-29,.cls-30,.cls-32{mix-blend-mode:multiply;}.cls-31{fill:#603913;}.cls-33{fill:#2859a9;}.cls-34{fill:#010101;}.cls-35{fill:#565656;}.cls-36{fill:#787878;}.cls-37{fill:#333;}.cls-38{fill:#989898;}.cls-39{fill:#2bb673;}.cls-40{fill:#fbb040;}.cls-41{fill:#f3c736;}.cls-42{clip-path:url(#clip-path-3);}.cls-43{fill:#e69d2d;}.cls-44{fill:#d7809b;}.cls-45{clip-path:url(#clip-path-4);}.cls-46{clip-path:url(#clip-path-5);}.cls-47{fill:#f9dcac;}.cls-48{clip-path:url(#clip-path-6);}.cls-49{fill:#4d4d4d;}.cls-50{clip-path:url(#clip-path-7);}.cls-51{clip-path:url(#clip-path-8);}.cls-52{fill:#939598;}.cls-53{clip-path:url(#clip-path-9);}.cls-54{clip-path:url(#clip-path-10);}.cls-55{clip-path:url(#clip-path-11);}.cls-56{clip-path:url(#clip-path-12);}.cls-57{clip-path:url(#clip-path-13);}.cls-58{clip-path:url(#clip-path-14);}.cls-59{clip-path:url(#clip-path-15);}.cls-60{clip-path:url(#clip-path-16);}.cls-61{clip-path:url(#clip-path-17);}.cls-62{clip-path:url(#clip-path-18);}.cls-63{clip-path:url(#clip-path-19);}.cls-64{clip-path:url(#clip-path-20);}.cls-65{fill:#a7a9ac;}.cls-68{fill:#fff;}.cls-70,.cls-72{stroke:#bcbec0;}.cls-70,.cls-75,.cls-81,.cls-82,.cls-84{stroke-width:3px;}.cls-71{stroke-width:8px;}.cls-73{fill:#f9ed32;}.cls-74{fill:#00ace0;}.cls-76,.cls-84{stroke:#00ace0;}.cls-76,.cls-83{stroke-width:4px;}.cls-78{clip-path:url(#clip-path-21);}.cls-80{clip-path:url(#clip-path-22);}.cls-81{stroke:#d1d3d4;}.cls-83{stroke:#6dc171;}.cls-85{stroke-width:0.25px;}</style><linearGradient id="linear-gradient" x1="107.33" y1="134.14" x2="470.82" y2="134.14" gradientUnits="userSpaceOnUse"><stop offset="0" stop-color="#78cced"/><stop offset="1" stop-color="#1e8ac1"/></linearGradient><clipPath id="clip-path" transform="translate(-2156.52 -263)"><rect class="cls-1" x="2364.21" y="494.44" width="12.07" height="12.07"/></clipPath><clipPath id="clip-path-2" transform="translate(-2156.52 -263)"><circle class="cls-2" cx="2389.33" cy="500.59" r="6.04"/></clipPath><clipPath id="clip-path-3" transform="translate(-2156.52 -263)"><rect class="cls-3" x="2192.51" y="428.86" width="2.56" height="94.7" transform="translate(-38.57 239.42) rotate(-6.19)"/></clipPath><clipPath id="clip-path-4" transform="translate(-2156.52 -263)"><rect class="cls-3" x="2186.58" y="429.51" width="2.35" height="94.7" transform="translate(-38.67 238.77) rotate(-6.19)"/></clipPath><clipPath id="clip-path-5" transform="translate(-2156.52 -263)"><rect class="cls-3" x="2192.46" y="528.51" width="8.52" height="4.82" transform="translate(-44.45 240.06) rotate(-6.19)"/></clipPath><clipPath id="clip-path-6" transform="translate(-2156.52 -263)"><rect class="cls-3" x="2192.36" y="529.78" width="8.52" height="0.39" transform="translate(-44.35 240.04) rotate(-6.19)"/></clipPath><clipPath id="clip-path-7" transform="translate(-2156.52 -263)"><rect class="cls-3" x="2191.69" y="523.6" width="8.52" height="0.39" transform="translate(-43.69 239.93) rotate(-6.19)"/></clipPath><clipPath id="clip-path-8" transform="translate(-2156.52 -263)"><rect class="cls-3" x="2191.94" y="525.64" width="8.52" height="0.77" transform="translate(-43.93 239.97) rotate(-6.19)"/></clipPath><clipPath id="clip-path-9" transform="translate(-2156.52 -263)"><rect class="cls-3" x="2177.95" y="483.58" width="94.7" height="2.56" transform="translate(1416.08 2613.76) rotate(-81.48)"/></clipPath><clipPath id="clip-path-10" transform="translate(-2156.52 -263)"><rect class="cls-3" x="2183.95" y="484.59" width="94.7" height="2.35" transform="translate(1420.3 2620.46) rotate(-81.48)"/></clipPath><clipPath id="clip-path-11" transform="translate(-2156.52 -263)"><rect class="cls-3" x="2233.94" y="426.94" width="4.82" height="8.52" transform="translate(1478.57 2578.98) rotate(-81.48)"/></clipPath><clipPath id="clip-path-12" transform="translate(-2156.52 -263)"><rect class="cls-3" x="2236.02" y="427.88" width="0.39" height="8.52" transform="translate(1477.52 2579.64) rotate(-81.48)"/></clipPath><clipPath id="clip-path-13" transform="translate(-2156.52 -263)"><rect class="cls-3" x="2235.1" y="434.02" width="0.39" height="8.52" transform="translate(1470.65 2583.97) rotate(-81.48)"/></clipPath><clipPath id="clip-path-14" transform="translate(-2156.52 -263)"><rect class="cls-3" x="2235.23" y="431.8" width="0.77" height="8.52" transform="translate(1473.13 2582.4) rotate(-81.48)"/></clipPath><clipPath id="clip-path-15" transform="translate(-2156.52 -263)"><rect class="cls-3" x="2165.95" y="483.83" width="94.7" height="2.56" transform="translate(1585.48 2662.23) rotate(-86.28)"/></clipPath><clipPath id="clip-path-16" transform="translate(-2156.52 -263)"><rect class="cls-3" x="2172" y="484.33" width="94.7" height="2.35" transform="translate(1590.75 2668.64) rotate(-86.28)"/></clipPath><clipPath id="clip-path-17" transform="translate(-2156.52 -263)"><rect class="cls-3" x="2217.42" y="426.45" width="4.82" height="8.52" transform="translate(1645.87 2617.88) rotate(-86.28)"/></clipPath><clipPath id="clip-path-18" transform="translate(-2156.52 -263)"><rect class="cls-3" x="2219.57" y="427.39" width="0.39" height="8.52" transform="translate(1644.87 2618.7) rotate(-86.28)"/></clipPath><clipPath id="clip-path-19" transform="translate(-2156.52 -263)"><rect class="cls-3" x="2219.17" y="433.6" width="0.39" height="8.52" transform="translate(1638.3 2624.1) rotate(-86.28)"/></clipPath><clipPath id="clip-path-20" transform="translate(-2156.52 -263)"><rect class="cls-3" x="2219.12" y="431.36" width="0.77" height="8.52" transform="translate(1640.66 2622.14) rotate(-86.28)"/></clipPath><clipPath id="clip-path-21" transform="translate(-2156.52 -263)"><rect class="cls-4" x="2505.86" y="362.05" width="99.98" height="65.31"/></clipPath><clipPath id="clip-path-22" transform="translate(-2156.52 -263)"><rect class="cls-4" x="2505.86" y="434.34" width="99.98" height="26.63"/></clipPath></defs><title>diva-admin</title><g class="cls-5"><g id="Layer_2" data-name="Layer 2"><rect class="cls-6" x="91.23" y="1" width="393.83" height="271.2" rx="14.8" ry="14.8"/><rect class="cls-7" x="107.33" y="21.43" width="363.49" height="225.4"/><path class="cls-8" d="M2410.12,619.93s1.82,4.37,4.88,4.37h58.46c3.76,0,3.76-4.37,3.76-4.37h-67.1Z" transform="translate(-2156.52 -263)"/><rect class="cls-9" x="202.28" y="226.85" width="174.9" height="19.98"/><rect class="cls-10" x="244.9" y="231.44" width="12.07" height="12.07"/><rect class="cls-11" x="263.51" y="231.44" width="12.07" height="12.07"/><rect class="cls-12" x="282.11" y="231.44" width="12.07" height="12.07"/><rect class="cls-13" x="300.72" y="231.44" width="12.07" height="12.07"/><circle class="cls-14" cx="343.96" cy="237.47" r="6.04"/><circle class="cls-15" cx="325.36" cy="237.47" r="6.04"/><circle class="cls-16" cx="362.57" cy="237.47" r="6.04"/><rect class="cls-1" x="207.69" y="231.44" width="12.07" height="12.07"/><g class="cls-17"><rect class="cls-18" x="202.65" y="228.71" width="11.08" height="16.68"/></g><circle class="cls-19" cx="232.81" cy="237.59" r="6.04"/><g class="cls-20"><polygon class="cls-21" points="239.44 235.31 232.81 237.59 229.73 243.63 235.09 245.51 242.06 240.41 239.44 235.31"/><polygon class="cls-22" points="230.29 244.34 232.75 237.77 230.05 231.56 225.19 234.5 224.69 243.12 230.29 244.34"/><circle class="cls-23" cx="232.81" cy="237.59" r="2.29"/></g><circle class="cls-24" cx="232.81" cy="237.59" r="6.04"/><rect class="cls-25" x="107.33" y="21.43" width="363.49" height="5.49"/><circle class="cls-26" cx="110.66" cy="24.18" r="1.97"/><line class="cls-27" x1="115.6" y1="24.18" x2="137.63" y2="24.18"/><line class="cls-27" x1="142.69" y1="24.18" x2="156.12" y2="24.18"/><line class="cls-27" x1="162" y1="24.18" x2="175.44" y2="24.18"/><line class="cls-27" x1="448.37" y1="24.18" x2="461.8" y2="24.18"/><circle class="cls-27" cx="466.8" cy="24.18" r="1.79"/><path class="cls-28" d="M2736,469.8l-0.3,15.08h1.07s2.06-8.82,12.09-6,12.35,15.35,8.84,31.77-20.24,13.52-22.78,8.47l-0.73,12.94a2.91,2.91,0,0,1,1.53-.59c0.76,0,20.54,2.64,27.7-13.29,0,0,6.41-16.85,2.13-31.82s-15.38-16.6-28.33-16.27Z" transform="translate(-2156.52 -263)"/><path class="cls-29" d="M2736.12,469.82l-0.3,15.08h1.07s2.06-8.82,12.09-6,12.35,15.35,8.84,31.77-20.33,16.22-22.87,11.17l-0.65,10.24a2.91,2.91,0,0,1,1.53-.59c0.76,0,17.79,2.08,25-13.85,0,0,5.95-15.37,1.67-30.34s-13.34-14.38-26.3-14.05Z" transform="translate(-2156.52 -263)"/><path class="cls-1" d="M2694.93,451.31c-1,0-34.56-.59-42.13,4.57l0,95.87,0.63,3s14.9,6.44,40.41,6c25.5,0.9,40.52-5.25,40.52-5.25l0.69-3,1.87-95.85C2729.5,451.39,2695.91,451.31,2694.93,451.31Z" transform="translate(-2156.52 -263)"/><path class="cls-30" d="M2733,458.42c0,2-17.24,3.53-38.47,3.32s-38.42-2-38.4-4.06,17.26-4.9,38.48-4.7S2733,456.38,2733,458.42Z" transform="translate(-2156.52 -263)"/><path class="cls-31" d="M2727.11,460.33c-6.84-1.49-18.71-2.83-32.24-3-13.69-.13-25.71,1-32.53,2.39,6.85,1.08,18.7,1.86,32.2,2C2708.26,461.88,2720.3,461.3,2727.11,460.33Z" transform="translate(-2156.52 -263)"/><g class="cls-32"><path class="cls-1" d="M2693.47,443.27s0.77-.86,2-2.38a16.43,16.43,0,0,0,3.44-6.83,25.74,25.74,0,0,0,.43-5.1c0-.47,0-1-0.07-1.44a12.71,12.71,0,0,0-.19-1.3,11,11,0,0,0-.8-2.63,29.51,29.51,0,0,0-3.31-5.18,37.11,37.11,0,0,1-3.71-5.94,17.75,17.75,0,0,1-1.84-7.22,19.69,19.69,0,0,1,1.2-7c0.71-2.11,1.61-4,2.4-5.77l1.15-2.55c0.2-.44.31-0.79,0.46-1.17s0.26-.77.36-1.16a17.92,17.92,0,0,0,.33-7.71c-0.16-.95-0.31-1.7-0.43-2.21l-0.19-.78h0a0.5,0.5,0,0,1,.95-0.31l0.32,0.76c0.2,0.5.5,1.24,0.79,2.22a19.08,19.08,0,0,1,.75,3.65,16.87,16.87,0,0,1-.18,4.91c-0.07.45-.19,0.9-0.29,1.36s-0.27,1-.41,1.38c-0.3.93-.65,1.78-1,2.7-0.7,1.82-1.4,3.72-2,5.65a16.78,16.78,0,0,0-.82,5.89,14.34,14.34,0,0,0,1.54,5.76,39.4,39.4,0,0,0,3.4,5.53,27.35,27.35,0,0,1,3.52,5.95,14.22,14.22,0,0,1,.88,3.38,15.25,15.25,0,0,1,.13,1.71c0,0.57,0,1,0,1.51a23.6,23.6,0,0,1-1,5.75,14.67,14.67,0,0,1-2.24,4.44,20.32,20.32,0,0,1-2.48,2.77c-0.73.7-1.35,1.21-1.76,1.55l-0.63.52h0A0.5,0.5,0,0,1,2693.47,443.27Z" transform="translate(-2156.52 -263)"/></g><g class="cls-32"><path class="cls-1" d="M2673.7,444.65l0.15-.24a5.28,5.28,0,0,0,.39-0.67,8.23,8.23,0,0,0,.46-1l0.2-.67,0.16-.76a10.29,10.29,0,0,0-.06-3.65,11.12,11.12,0,0,0-.58-2,10.57,10.57,0,0,0-1-1.84c-0.89-1.29-1.8-2.56-2.58-3.91a12.76,12.76,0,0,1-1.53-4,10.81,10.81,0,0,1-.18-1.71,12.22,12.22,0,0,1,0-1.3c0.06-.71.13-1.11,0.13-1.11a0.51,0.51,0,0,1,.59-0.41,0.51,0.51,0,0,1,.41.42l0.17,1c0.07,0.33.12,0.73,0.23,1.17a11.92,11.92,0,0,0,.4,1.45,14.82,14.82,0,0,0,1.63,3.35c0.74,1.18,1.66,2.47,2.52,3.79a10.59,10.59,0,0,1,1.16,2.31,11.14,11.14,0,0,1,.58,2.42,10.81,10.81,0,0,1-.34,4.35,10.58,10.58,0,0,1-.67,1.61,9.34,9.34,0,0,1-.74,1.15,5.2,5.2,0,0,1-.55.63l-0.2.2A0.5,0.5,0,0,1,2673.7,444.65Z" transform="translate(-2156.52 -263)"/></g><g class="cls-32"><path class="cls-1" d="M2719.69,445.88l-0.22-.21a6,6,0,0,1-.58-0.64,6.67,6.67,0,0,1-.78-1.27,6.2,6.2,0,0,1-.56-1.89,7.13,7.13,0,0,1,.07-2.35,10.3,10.3,0,0,1,.71-2.39c0.61-1.56,1.46-3,2.13-4.35,0.32-.68.62-1.36,0.91-2.09s0.57-1.41.79-2.1,0.46-1.35.61-2a17.82,17.82,0,0,0,.39-1.77,8.67,8.67,0,0,0,.12-1.46,3.36,3.36,0,0,0,0-.58,1.45,1.45,0,0,0-.09-0.47c0-.13-0.07-0.27-0.11-0.37l-0.14-.25-0.12-.22-0.08-.15a0.49,0.49,0,0,1,.71-0.62l0.29,0.21,0.35,0.27a3.62,3.62,0,0,1,.38.45,2.59,2.59,0,0,1,.38.61,3.55,3.55,0,0,1,.32.77,7.42,7.42,0,0,1,.36,1.88,11.58,11.58,0,0,1,0,2.17,16.46,16.46,0,0,1-.36,2.34c-0.18.79-.4,1.6-0.66,2.41a22.14,22.14,0,0,1-1,2.42c-0.76,1.58-1.66,2.94-2.33,4.18a14.86,14.86,0,0,0-.82,1.76,7.53,7.53,0,0,0-.39,1.58,6.51,6.51,0,0,0,0,1.4,9.71,9.71,0,0,0,.22,1.11c0.08,0.32.21,0.61,0.27,0.79l0.1,0.29A0.51,0.51,0,0,1,2719.69,445.88Z" transform="translate(-2156.52 -263)"/></g><path class="cls-33" d="M2706.14,489.65a4.68,4.68,0,0,0,4.68-2.3,4.34,4.34,0,1,0-7.41-4.47,4.67,4.67,0,0,0,.18,5.25c-3.84-1.44-7.32.63-7.67,1.21s2.17,2.88,5.71,5,6.76,3.28,7.1,2.71S2709.28,492.38,2706.14,489.65Z" transform="translate(-2156.52 -263)"/><path class="cls-34" d="M2683,489.65a4.68,4.68,0,0,1-4.68-2.3,4.34,4.34,0,1,1,7.41-4.47,4.67,4.67,0,0,1-.18,5.25c3.84-1.44,7.32.63,7.67,1.21s-2.17,2.88-5.71,5-6.76,3.28-7.1,2.71S2679.88,492.38,2683,489.65Z" transform="translate(-2156.52 -263)"/><path class="cls-35" d="M2683.68,522.74a4.11,4.11,0,0,0-4.14,2.11,4,4,0,1,0,6.94,3.87,4.11,4.11,0,0,0-.41-4.66c3.56,1.23,7-.66,7.25-1.2,0.16-.33-2.68-2.22-6-4.07s-6.31-3.08-6.41-2.82A7.63,7.63,0,0,0,2683.68,522.74Z" transform="translate(-2156.52 -263)"/><path class="cls-36" d="M2705.44,522.74a4.11,4.11,0,0,1,4.14,2.11,4,4,0,1,1-6.94,3.87,4.11,4.11,0,0,1,.41-4.66c-3.56,1.23-7-.66-7.25-1.2-0.16-.33,2.68-2.22,6-4.07s6.31-3.08,6.41-2.82A7.63,7.63,0,0,1,2705.44,522.74Z" transform="translate(-2156.52 -263)"/><path class="cls-37" d="M2674.64,505.34a4.5,4.5,0,0,0-4.07-2.83,4.19,4.19,0,1,0,4.08,5.6,7.82,7.82,0,0,0,5,5.71c0.62,0,.89-3.29.89-7.15s-0.73-7.44-1.35-7.44S2675.31,501.51,2674.64,505.34Z" transform="translate(-2156.52 -263)"/><path class="cls-38" d="M2714.52,505.34a4.5,4.5,0,0,1,4.07-2.83,4.19,4.19,0,1,1-4.08,5.6,7.82,7.82,0,0,1-5,5.71c-0.62,0-.89-3.29-0.89-7.15s0.73-7.44,1.35-7.44S2713.85,501.51,2714.52,505.34Z" transform="translate(-2156.52 -263)"/><path class="cls-39" d="M2206.92,459.28c-0.79,0-28-.47-34.09,3.7l4.88,77.57,0.51,2.42s7.2,5.21,27.84,4.88c20.64,0.73,27.93-4.25,27.93-4.25l0.56-2.41,6.37-77.55C2234.88,459.34,2207.71,459.28,2206.92,459.28Z" transform="translate(-2156.52 -263)"/><path class="cls-30" d="M2237.73,465c0,1.65-14,2.85-31.13,2.69s-31.08-1.64-31.07-3.29,14-4,31.14-3.8S2237.74,463.39,2237.73,465Z" transform="translate(-2156.52 -263)"/><rect class="cls-40" x="2186.56" y="429.18" width="8.52" height="94.7" transform="translate(-2195.14 -23.89) rotate(-6.19)"/><rect class="cls-41" x="2192.51" y="428.86" width="2.56" height="94.7" transform="translate(-2195.09 -23.57) rotate(-6.19)"/><rect class="cls-43" x="2186.58" y="429.51" width="2.35" height="94.7" transform="translate(-2195.19 -24.22) rotate(-6.19)"/><rect class="cls-44" x="2192.46" y="528.51" width="8.52" height="4.82" rx="1.64" ry="1.64" transform="translate(-2200.97 -22.94) rotate(-6.19)"/><path class="cls-47" d="M2183.82,429.7c0.6,0,.88,1.66,1.87,1.55s1.14-1.47,1.73-1.78c0.36-.19.78,1,1.41,1a1.68,1.68,0,0,0,1.15-1.21l0-.21-0.12-.21-5.23-9.55-3,10.29h0l-0.12.4,0.07,0.65a1.39,1.39,0,0,0,1.08.52c0.73-.08.72-1.38,1.18-1.41" transform="translate(-2156.52 -263)"/><path class="cls-49" d="M2183.77,422.08a4.3,4.3,0,0,0,2.25-.27l-1.42-2.59" transform="translate(-2156.52 -263)"/><rect class="cls-52" x="2192.78" y="522.87" width="7.08" height="8.51" transform="translate(326.92 -1976.24) rotate(83.81)"/><rect class="cls-25" x="2193.7" y="522.92" width="5.23" height="8.52" transform="translate(326.99 -1976.18) rotate(83.81)"/><rect class="cls-40" x="2180.9" y="481.04" width="94.7" height="8.52" transform="translate(-738.37 2354.06) rotate(-81.48)"/><rect class="cls-41" x="2177.95" y="483.58" width="94.7" height="2.56" transform="translate(-740.44 2350.76) rotate(-81.48)"/><rect class="cls-43" x="2183.95" y="484.59" width="94.7" height="2.35" transform="translate(-736.22 2357.46) rotate(-81.48)"/><rect class="cls-44" x="2233.94" y="426.94" width="4.82" height="8.52" rx="1.64" ry="1.64" transform="translate(-677.95 2315.98) rotate(-81.48)"/><path class="cls-47" d="M2223.13,532.38c-0.6-.11-0.43-1.83-1.41-2s-1.47,1.13-2.12,1.28c-0.4.09-.49-1.2-1.11-1.29a1.68,1.68,0,0,0-1.42.88l0,0.2,0.06,0.24,2.63,10.57,5.52-9.19h0l0.21-.36,0.1-.64a1.39,1.39,0,0,0-.92-0.78c-0.73-.11-1,1.15-1.5,1.07" transform="translate(-2156.52 -263)"/><path class="cls-49" d="M2221.24,539.76a4.3,4.3,0,0,0-2.24-.31l0.71,2.86" transform="translate(-2156.52 -263)"/><rect class="cls-52" x="2232.24" y="430.72" width="7.08" height="8.51" transform="translate(-682.18 2318.64) rotate(-81.48)"/><rect class="cls-25" x="2233.18" y="430.65" width="5.23" height="8.52" transform="translate(-682.1 2318.6) rotate(-81.48)"/><rect class="cls-40" x="2168.92" y="481.04" width="94.7" height="8.52" transform="translate(-568.45 2402.38) rotate(-86.28)"/><rect class="cls-41" x="2165.95" y="483.83" width="94.7" height="2.56" transform="translate(-571.04 2399.23) rotate(-86.28)"/><rect class="cls-43" x="2172" y="484.33" width="94.7" height="2.35" transform="translate(-565.78 2405.64) rotate(-86.28)"/><rect class="cls-44" x="2217.42" y="426.45" width="4.82" height="8.52" rx="1.64" ry="1.64" transform="translate(-510.65 2354.88) rotate(-86.28)"/><path class="cls-47" d="M2215.11,532.64c-0.6-.06-0.58-1.78-1.57-1.85s-1.37,1.25-2,1.45c-0.39.13-.59-1.16-1.22-1.2a1.68,1.68,0,0,0-1.35,1v0.21l0.08,0.23,3.5,10.31,4.74-9.62h0l0.18-.37,0-.65a1.39,1.39,0,0,0-1-.7c-0.73,0-1,1.23-1.41,1.19" transform="translate(-2156.52 -263)"/><path class="cls-49" d="M2213.84,540.15a4.3,4.3,0,0,0-2.26-.12l0.95,2.79" transform="translate(-2156.52 -263)"/><rect class="cls-52" x="2216.04" y="430.27" width="7.08" height="8.51" transform="translate(-514.7 2358.19) rotate(-86.28)"/><rect class="cls-25" x="2216.97" y="430.19" width="5.23" height="8.52" transform="translate(-514.62 2358.14) rotate(-86.28)"/><path class="cls-39" d="M2206.6,467.72c-0.79,0-30.51.34-33.77-4.74l4.88,77.57,0.51,2.42s7.2,5.21,27.84,4.88c20.64,0.73,27.93-4.25,27.93-4.25l0.56-2.41,6.37-77.55C2236.37,468.68,2207.39,467.73,2206.6,467.72Z" transform="translate(-2156.52 -263)"/><path class="cls-65" d="M2719.36,626h-548.5c-10.62,0-17.08-10.39-13.2-14.09l90.86-78.49c1.79-1.71,8.89-3.07,15.88-3.07h361.42c7,0,14.1,1.36,15.88,3.07l89.78,77C2735.36,614.18,2730,626,2719.36,626Z" transform="translate(-2156.52 -263)"/><path class="cls-66" d="M2719.36,617.26h-548.5c-10.62,0-16-3.08-12.13-6.79l89.78-85.79c1.79-1.71,8.89-3.07,15.88-3.07h361.42c7,0,14.1,1.36,15.88,3.07l89.78,85.79C2735.36,614.18,2730,617.26,2719.36,617.26Z" transform="translate(-2156.52 -263)"/><polygon class="cls-67" points="436.05 261.46 141.49 261.46 143.72 258.61 433.81 258.61 436.05 261.46"/><polygon class="cls-65" points="96.67 299.89 60.95 299.89 95.08 265.99 125.44 265.99 96.67 299.89"/><polygon class="cls-65" points="516.66 299.89 480.94 299.89 452.1 265.99 482.46 265.99 516.66 299.89"/><path class="cls-65" d="M2519.07,607.86H2371c-4.47,0-7.72-1.26-7.25-2.8l9.39-31c0.36-1.19,3.8-2.15,7.68-2.15h128.42c3.88,0,7.32,1,7.68,2.15l9.38,31C2526.78,606.6,2523.54,607.86,2519.07,607.86Z" transform="translate(-2156.52 -263)"/><path class="cls-67" d="M2310.89,531.77h-17.66c-0.53,0-.87-0.11-0.77-0.24l1.81-2.31a2,2,0,0,1,1.13-.23h17.41c0.52,0,.87.1,0.78,0.23l-1.58,2.31A1.89,1.89,0,0,1,2310.89,531.77Z" transform="translate(-2156.52 -263)"/><path class="cls-67" d="M2332.94,531.77h-17.66c-0.53,0-.89-0.11-0.8-0.24l1.55-2.31a1.86,1.86,0,0,1,1.1-.23h17.41c0.52,0,.89.1,0.81,0.23l-1.32,2.31A1.76,1.76,0,0,1,2332.94,531.77Z" transform="translate(-2156.52 -263)"/><path class="cls-67" d="M2355,531.77h-17.66c-0.53,0-.9-0.11-0.82-0.24l1.29-2.31a1.72,1.72,0,0,1,1.08-.23h17.41c0.52,0,.9.1,0.84,0.23l-1.06,2.31A1.62,1.62,0,0,1,2355,531.77Z" transform="translate(-2156.52 -263)"/><path class="cls-67" d="M2377,531.77h-17.66c-0.53,0-.91-0.11-0.85-0.24l1-2.31a1.59,1.59,0,0,1,1-.23H2378a0.87,0.87,0,0,1,.86.23l-0.79,2.31A1.5,1.5,0,0,1,2377,531.77Z" transform="translate(-2156.52 -263)"/><path class="cls-67" d="M2399.08,531.77h-17.66a0.88,0.88,0,0,1-.88-0.24l0.77-2.31a1.47,1.47,0,0,1,1-.23h17.41a1,1,0,0,1,.89.23l-0.53,2.31A1.38,1.38,0,0,1,2399.08,531.77Z" transform="translate(-2156.52 -263)"/><path class="cls-67" d="M2421.13,531.77h-17.66a1,1,0,0,1-.91-0.24l0.5-2.31a1.36,1.36,0,0,1,1-.23h17.41a1,1,0,0,1,.92.23l-0.27,2.31A1.27,1.27,0,0,1,2421.13,531.77Z" transform="translate(-2156.52 -263)"/><path class="cls-67" d="M2443.17,531.77h-17.66a1.06,1.06,0,0,1-.93-0.24l0.24-2.31a1.25,1.25,0,0,1,1-.23h17.41a1.15,1.15,0,0,1,.94.23v2.31A1.16,1.16,0,0,1,2443.17,531.77Z" transform="translate(-2156.52 -263)"/><path class="cls-67" d="M2465.22,531.77h-17.66a1.16,1.16,0,0,1-1-.24l0-2.31a1.14,1.14,0,0,1,.94-0.23h17.41a1.25,1.25,0,0,1,1,.23l0.25,2.31A1.06,1.06,0,0,1,2465.22,531.77Z" transform="translate(-2156.52 -263)"/><path class="cls-67" d="M2487.27,531.77h-17.66a1.27,1.27,0,0,1-1-.24l-0.28-2.31a1,1,0,0,1,.92-0.23h17.41a1.36,1.36,0,0,1,1,.23l0.51,2.31A1,1,0,0,1,2487.27,531.77Z" transform="translate(-2156.52 -263)"/><path class="cls-67" d="M2509.31,531.77h-17.66a1.38,1.38,0,0,1-1-.24l-0.54-2.31A1,1,0,0,1,2491,529h17.41a1.48,1.48,0,0,1,1,.23l0.77,2.31A0.88,0.88,0,0,1,2509.31,531.77Z" transform="translate(-2156.52 -263)"/><path class="cls-67" d="M2531.36,531.77H2513.7a1.5,1.5,0,0,1-1-.24l-0.8-2.31a0.87,0.87,0,0,1,.86-0.23h17.41a1.6,1.6,0,0,1,1.05.23l1,2.31C2532.27,531.66,2531.89,531.77,2531.36,531.77Z" transform="translate(-2156.52 -263)"/><path class="cls-67" d="M2553.41,531.77h-17.66a1.63,1.63,0,0,1-1.07-.24l-1.06-2.31c-0.06-.13.32-0.23,0.84-0.23h17.41a1.73,1.73,0,0,1,1.08.23l1.29,2.31C2554.3,531.66,2553.94,531.77,2553.41,531.77Z" transform="translate(-2156.52 -263)"/><path class="cls-67" d="M2575.45,531.77h-17.66a1.76,1.76,0,0,1-1.1-.24l-1.32-2.31c-0.07-.13.29-0.23,0.81-0.23h17.41a1.86,1.86,0,0,1,1.1.23l1.55,2.31C2576.34,531.66,2576,531.77,2575.45,531.77Z" transform="translate(-2156.52 -263)"/><path class="cls-67" d="M2597.5,531.77h-17.66a1.9,1.9,0,0,1-1.12-.24l-1.58-2.31c-0.09-.13.26-0.23,0.78-0.23h17.41a2,2,0,0,1,1.13.23l1.82,2.31C2598.37,531.66,2598,531.77,2597.5,531.77Z" transform="translate(-2156.52 -263)"/><path class="cls-67" d="M2306.78,537h-17.36c-0.68,0-1.11-.14-1-0.32l3.08-3.93a2.52,2.52,0,0,1,1.43-.3h17c0.66,0,1.1.14,1,.3l-2.69,3.93A2.4,2.4,0,0,1,2306.78,537Z" transform="translate(-2156.52 -263)"/><path class="cls-67" d="M2328.64,537h-17.36c-0.68,0-1.13-.14-1-0.32l2.65-3.93a2.34,2.34,0,0,1,1.4-.3h17c0.66,0,1.12.14,1,.3l-2.26,3.93A2.22,2.22,0,0,1,2328.64,537Z" transform="translate(-2156.52 -263)"/><path class="cls-67" d="M2350.51,537h-17.36c-0.68,0-1.14-.14-1-0.32l2.22-3.93a2.17,2.17,0,0,1,1.37-.3h17c0.66,0,1.13.14,1.05,0.3l-1.83,3.93A2.06,2.06,0,0,1,2350.51,537Z" transform="translate(-2156.52 -263)"/><path class="cls-67" d="M2394.24,537h-17.36c-0.68,0-1.17-.14-1.11-0.32l1.36-3.93a1.86,1.86,0,0,1,1.3-.3h17a1.17,1.17,0,0,1,1.12.3l-1,3.93A1.76,1.76,0,0,1,2394.24,537Z" transform="translate(-2156.52 -263)"/><path class="cls-67" d="M2372.38,537H2355c-0.68,0-1.16-.14-1.08-0.32l1.79-3.93a2,2,0,0,1,1.33-.3h17c0.66,0,1.15.14,1.09,0.3l-1.4,3.93A1.9,1.9,0,0,1,2372.38,537Z" transform="translate(-2156.52 -263)"/><path class="cls-67" d="M2416.08,537.17H2398.7c-0.68,0-1.19-.14-1.15-0.32l0.94-3.94a1.72,1.72,0,0,1,1.27-.3h17a1.29,1.29,0,0,1,1.15.3l-0.55,3.94A1.62,1.62,0,0,1,2416.08,537.17Z" transform="translate(-2156.52 -263)"/><path class="cls-67" d="M2438,537.17h-17.38a1.31,1.31,0,0,1-1.18-.32l0.51-3.94a1.59,1.59,0,0,1,1.23-.3h17a1.4,1.4,0,0,1,1.19.3l-0.12,3.94A1.49,1.49,0,0,1,2438,537.17Z" transform="translate(-2156.52 -263)"/><path class="cls-67" d="M2459.84,537h-17.36a1.43,1.43,0,0,1-1.22-.32l0.08-3.93a1.46,1.46,0,0,1,1.2-.3h17a1.53,1.53,0,0,1,1.22.3l0.31,3.93A1.36,1.36,0,0,1,2459.84,537Z" transform="translate(-2156.52 -263)"/><path class="cls-67" d="M2481.7,537h-17.36a1.56,1.56,0,0,1-1.25-.32l-0.35-3.93a1.34,1.34,0,0,1,1.17-.3h17a1.66,1.66,0,0,1,1.25.3l0.74,3.93A1.24,1.24,0,0,1,2481.7,537Z" transform="translate(-2156.52 -263)"/><path class="cls-67" d="M2503.57,537H2486.2a1.69,1.69,0,0,1-1.29-.32l-0.78-3.93a1.22,1.22,0,0,1,1.13-.3h17a1.8,1.8,0,0,1,1.28.3l1.17,3.93C2504.75,536.83,2504.24,537,2503.57,537Z" transform="translate(-2156.52 -263)"/><path class="cls-67" d="M2525.43,537h-17.36a1.84,1.84,0,0,1-1.32-.32l-1.21-3.93c-0.05-.17.44-0.3,1.1-0.3h17a2,2,0,0,1,1.32.3l1.6,3.93C2526.6,536.83,2526.11,537,2525.43,537Z" transform="translate(-2156.52 -263)"/><path class="cls-67" d="M2547.3,537h-17.36a2,2,0,0,1-1.35-.32l-1.64-3.93c-0.07-.17.41-0.3,1.07-0.3h17a2.1,2.1,0,0,1,1.35.3l2,3.93C2548.45,536.83,2548,537,2547.3,537Z" transform="translate(-2156.52 -263)"/><path class="cls-67" d="M2569.16,537H2551.8a2.15,2.15,0,0,1-1.39-.32l-2.07-3.93c-0.09-.17.38-0.3,1-0.3h17a2.27,2.27,0,0,1,1.38.3l2.46,3.93C2570.3,536.83,2569.84,537,2569.16,537Z" transform="translate(-2156.52 -263)"/><path class="cls-67" d="M2600.9,537h-27a2.85,2.85,0,0,1-1.75-.39l-2.41-3.79c-0.13-.21.42-0.37,1.23-0.37h26.34a3.1,3.1,0,0,1,1.76.37l3,3.79C2602.27,536.8,2601.73,537,2600.9,537Z" transform="translate(-2156.52 -263)"/><path class="cls-67" d="M2289,562.6h-19.38c-0.82,0-1.33-.19-1.15-0.43l4.57-5.82a3,3,0,0,1,1.76-.41h18.8c0.8,0,1.32.18,1.16,0.41l-4,5.82A2.81,2.81,0,0,1,2289,562.6Z" transform="translate(-2156.52 -263)"/><path class="cls-67" d="M2313.63,562.6h-19.38c-0.82,0-1.35-.19-1.19-0.43l3.93-5.82a2.73,2.73,0,0,1,1.72-.41h18.8c0.8,0,1.34.18,1.21,0.41l-3.35,5.82A2.6,2.6,0,0,1,2313.63,562.6Z" transform="translate(-2156.52 -263)"/><path class="cls-67" d="M2338.29,562.6h-19.38c-0.82,0-1.38-.19-1.24-0.43l3.29-5.82a2.52,2.52,0,0,1,1.67-.41h18.8c0.8,0,1.36.18,1.25,0.41l-2.72,5.82A2.39,2.39,0,0,1,2338.29,562.6Z" transform="translate(-2156.52 -263)"/><path class="cls-67" d="M2368.57,562.6h-24.81c-0.92,0-1.57-.22-1.45-0.48l2.61-5.72a2.6,2.6,0,0,1,1.83-.46h24.07c0.89,0,1.55.2,1.47,0.46l-1.9,5.72A2.41,2.41,0,0,1,2368.57,562.6Z" transform="translate(-2156.52 -263)"/><path class="cls-67" d="M2489.45,562.88H2377.36c-1.89,0-3.29-.45-3.11-1l1.49-4.74c0.16-.52,1.79-0.95,3.62-0.95h108.77c1.84,0,3.42.42,3.53,0.95l1,4.74C2492.78,562.44,2491.34,562.88,2489.45,562.88Z" transform="translate(-2156.52 -263)"/><path class="cls-67" d="M2521.81,562.6h-23.58a2.17,2.17,0,0,1-1.73-.47l-1.31-5.74c-0.06-.25.6-0.45,1.48-0.45h22.88a2.34,2.34,0,0,1,1.73.45l2,5.74C2523.36,562.39,2522.71,562.6,2521.81,562.6Z" transform="translate(-2156.52 -263)"/><path class="cls-67" d="M2547.82,562.6h-19.38a2.2,2.2,0,0,1-1.64-.43l-2.11-5.82c-0.08-.23.5-0.41,1.29-0.41h18.8a2.33,2.33,0,0,1,1.63.41l2.69,5.82C2549.21,562.41,2548.64,562.6,2547.82,562.6Z" transform="translate(-2156.52 -263)"/><path class="cls-67" d="M2336.46,542.66H2318.6c-0.69,0-1.16-.15-1.05-0.33l2.58-4.16a2.3,2.3,0,0,1,1.43-.32H2339c0.68,0,1.15.14,1.06,0.32l-2.17,4.16A2.18,2.18,0,0,1,2336.46,542.66Z" transform="translate(-2156.52 -263)"/><path class="cls-67" d="M2358.95,542.66h-17.86c-0.69,0-1.18-.15-1.09-0.33l2.13-4.16a2.13,2.13,0,0,1,1.39-.32H2361c0.68,0,1.17.14,1.1,0.32l-1.71,4.16A2,2,0,0,1,2358.95,542.66Z" transform="translate(-2156.52 -263)"/><path class="cls-67" d="M2381.44,542.66h-17.86c-0.69,0-1.2-.15-1.12-0.33l1.67-4.16a2,2,0,0,1,1.36-.32h17.44c0.68,0,1.18.14,1.13,0.32l-1.26,4.16A1.86,1.86,0,0,1,2381.44,542.66Z" transform="translate(-2156.52 -263)"/><path class="cls-67" d="M2426.41,542.66h-17.86c-0.69,0-1.23-.15-1.2-0.33l0.76-4.16a1.67,1.67,0,0,1,1.29-.32h17.44a1.35,1.35,0,0,1,1.2.32l-0.35,4.16A1.57,1.57,0,0,1,2426.41,542.66Z" transform="translate(-2156.52 -263)"/><path class="cls-67" d="M2403.92,542.66h-17.86c-0.69,0-1.21-.15-1.16-0.33l1.22-4.16a1.82,1.82,0,0,1,1.32-.32h17.44a1.24,1.24,0,0,1,1.17.32l-0.81,4.16A1.71,1.71,0,0,1,2403.92,542.66Z" transform="translate(-2156.52 -263)"/><path class="cls-67" d="M2448.9,542.87H2431a1.38,1.38,0,0,1-1.23-.33l0.31-4.16a1.54,1.54,0,0,1,1.25-.32h17.46a1.48,1.48,0,0,1,1.24.32l0.1,4.16A1.44,1.44,0,0,1,2448.9,542.87Z" transform="translate(-2156.52 -263)"/><path class="cls-67" d="M2471.41,542.87h-17.88a1.51,1.51,0,0,1-1.27-.33l-0.14-4.16a1.41,1.41,0,0,1,1.22-.32h17.46a1.61,1.61,0,0,1,1.27.32l0.56,4.16A1.31,1.31,0,0,1,2471.41,542.87Z" transform="translate(-2156.52 -263)"/><path class="cls-67" d="M2493.87,542.66H2476a1.64,1.64,0,0,1-1.31-.33l-0.6-4.16a1.29,1.29,0,0,1,1.18-.32h17.44a1.75,1.75,0,0,1,1.31.32l1,4.16C2495.09,542.52,2494.56,542.66,2493.87,542.66Z" transform="translate(-2156.52 -263)"/><path class="cls-67" d="M2516.36,542.66H2498.5a1.79,1.79,0,0,1-1.34-.33l-1.05-4.16c0-.18.47-0.32,1.15-0.32h17.44a1.9,1.9,0,0,1,1.34.32l1.46,4.16C2517.56,542.52,2517.05,542.66,2516.36,542.66Z" transform="translate(-2156.52 -263)"/><path class="cls-67" d="M2538.84,542.66H2521a1.94,1.94,0,0,1-1.38-.33l-1.51-4.16c-0.06-.18.43-0.32,1.11-0.32h17.44a2.05,2.05,0,0,1,1.37.32l1.92,4.16C2540,542.52,2539.54,542.66,2538.84,542.66Z" transform="translate(-2156.52 -263)"/><path class="cls-67" d="M2561.33,542.66h-17.86a2.1,2.1,0,0,1-1.41-.33l-2-4.16c-0.08-.18.4-0.32,1.08-0.32h17.44a2.22,2.22,0,0,1,1.41.32l2.37,4.16C2562.5,542.52,2562,542.66,2561.33,542.66Z" transform="translate(-2156.52 -263)"/><path class="cls-67" d="M2583.82,542.66H2566a2.27,2.27,0,0,1-1.45-.33l-2.41-4.16c-0.1-.18.36-0.32,1-0.32h17.44a2.39,2.39,0,0,1,1.44.32l2.83,4.16C2585,542.52,2584.51,542.66,2583.82,542.66Z" transform="translate(-2156.52 -263)"/><path class="cls-67" d="M2606.3,542.66h-17.86a2.45,2.45,0,0,1-1.49-.33l-2.87-4.16c-0.12-.18.33-0.32,1-0.32h17.44a2.57,2.57,0,0,1,1.48.32l3.28,4.16C2607.44,542.52,2607,542.66,2606.3,542.66Z" transform="translate(-2156.52 -263)"/><path class="cls-67" d="M2313,542.66h-27.72c-0.85,0-1.4-.18-1.23-0.41l3.14-4a3.15,3.15,0,0,1,1.82-.39h27.08c0.83,0,1.4.18,1.26,0.39l-2.54,4A2.9,2.9,0,0,1,2313,542.66Z" transform="translate(-2156.52 -263)"/><path class="cls-67" d="M2349,555.07H2330c-0.74,0-1.24-.17-1.13-0.37l2.49-4.67a2.24,2.24,0,0,1,1.49-.36h18.47c0.72,0,1.23.16,1.14,0.36l-2,4.67A2.12,2.12,0,0,1,2349,555.07Z" transform="translate(-2156.52 -263)"/><path class="cls-67" d="M2372.82,555.07h-18.93c-0.74,0-1.26-.17-1.17-0.37l2-4.67a2.07,2.07,0,0,1,1.45-.36h18.47c0.72,0,1.25.16,1.18,0.36l-1.52,4.67A2,2,0,0,1,2372.82,555.07Z" transform="translate(-2156.52 -263)"/><path class="cls-67" d="M2396.66,555.07h-18.93c-0.74,0-1.28-.17-1.22-0.37L2378,550a1.9,1.9,0,0,1,1.41-.36h18.47c0.72,0,1.27.16,1.22,0.36l-1,4.67A1.79,1.79,0,0,1,2396.66,555.07Z" transform="translate(-2156.52 -263)"/><path class="cls-67" d="M2444.35,555.07h-18.93c-0.74,0-1.32-.17-1.3-0.37l0.45-4.67a1.6,1.6,0,0,1,1.33-.36h18.47a1.48,1.48,0,0,1,1.3.36v4.67A1.5,1.5,0,0,1,2444.35,555.07Z" transform="translate(-2156.52 -263)"/><path class="cls-67" d="M2420.5,555.07h-18.93c-0.74,0-1.3-.17-1.26-0.37l1-4.67a1.75,1.75,0,0,1,1.37-.36h18.47a1.35,1.35,0,0,1,1.26.36l-0.5,4.67A1.64,1.64,0,0,1,2420.5,555.07Z" transform="translate(-2156.52 -263)"/><path class="cls-67" d="M2468.21,555.3h-19a1.52,1.52,0,0,1-1.34-.38l-0.06-4.68a1.47,1.47,0,0,1,1.3-.36h18.48a1.62,1.62,0,0,1,1.34.36l0.52,4.68C2469.53,555.13,2468.95,555.3,2468.21,555.3Z" transform="translate(-2156.52 -263)"/><path class="cls-67" d="M2492.08,555.3h-19a1.66,1.66,0,0,1-1.38-.38l-0.57-4.68c0-.2.54-0.36,1.26-0.36h18.48a1.77,1.77,0,0,1,1.38.36l1,4.68C2493.38,555.13,2492.82,555.3,2492.08,555.3Z" transform="translate(-2156.52 -263)"/><path class="cls-67" d="M2515.87,555.07h-18.93a1.81,1.81,0,0,1-1.42-.37l-1.08-4.67c0-.2.5-0.36,1.22-0.36h18.47a1.93,1.93,0,0,1,1.42.36l1.54,4.67C2517.15,554.91,2516.61,555.07,2515.87,555.07Z" transform="translate(-2156.52 -263)"/><path class="cls-67" d="M2539.72,555.07h-18.93a2,2,0,0,1-1.46-.37l-1.59-4.67c-0.07-.2.46-0.36,1.18-0.36h18.47a2.09,2.09,0,0,1,1.46.36l2.05,4.67C2541,554.91,2540.45,555.07,2539.72,555.07Z" transform="translate(-2156.52 -263)"/><path class="cls-67" d="M2563.56,555.07h-18.93a2.14,2.14,0,0,1-1.5-.37L2541,550c-0.09-.2.42-0.36,1.14-0.36h18.47a2.27,2.27,0,0,1,1.5.36l2.56,4.67C2564.8,554.91,2564.29,555.07,2563.56,555.07Z" transform="translate(-2156.52 -263)"/><path class="cls-67" d="M2614.61,555.07h-45.46a3.52,3.52,0,0,1-2.33-.57l-2.4-4.29c-0.17-.3.58-0.54,1.67-0.54h44.34a4.05,4.05,0,0,1,2.39.54l3.37,4.29C2616.43,554.82,2615.73,555.07,2614.61,555.07Z" transform="translate(-2156.52 -263)"/><path class="cls-67" d="M2323.68,555.07h-47.61c-1.14,0-1.86-.26-1.61-0.58l3.34-4.26a4.14,4.14,0,0,1,2.45-.55h46.43c1.11,0,1.88.25,1.71,0.55l-2.33,4.26A3.57,3.57,0,0,1,2323.68,555.07Z" transform="translate(-2156.52 -263)"/><path class="cls-67" d="M2338.53,548.49h-18.36c-0.71,0-1.2-.16-1.08-0.35l2.62-4.39a2.3,2.3,0,0,1,1.46-.34h17.92c0.7,0,1.19.15,1.09,0.34l-2.18,4.39A2.18,2.18,0,0,1,2338.53,548.49Z" transform="translate(-2156.52 -263)"/><path class="cls-67" d="M2361.65,548.49h-18.36c-0.71,0-1.22-.16-1.12-0.35l2.14-4.39a2.13,2.13,0,0,1,1.43-.34h17.92c0.7,0,1.2.15,1.13,0.34l-1.7,4.39A2,2,0,0,1,2361.65,548.49Z" transform="translate(-2156.52 -263)"/><path class="cls-67" d="M2384.78,548.49h-18.36c-0.71,0-1.23-.16-1.16-0.35l1.66-4.39a2,2,0,0,1,1.39-.34h17.92c0.7,0,1.22.15,1.17,0.34l-1.22,4.39A1.85,1.85,0,0,1,2384.78,548.49Z" transform="translate(-2156.52 -263)"/><path class="cls-67" d="M2431,548.49h-18.36c-0.71,0-1.27-.16-1.24-0.35l0.7-4.39a1.66,1.66,0,0,1,1.32-.34h17.92a1.39,1.39,0,0,1,1.24.34l-0.27,4.39A1.56,1.56,0,0,1,2431,548.49Z" transform="translate(-2156.52 -263)"/><path class="cls-67" d="M2407.9,548.49h-18.36c-0.71,0-1.25-.16-1.2-0.35l1.18-4.39a1.81,1.81,0,0,1,1.35-.34h17.92c0.7,0,1.24.15,1.2,0.34l-0.75,4.39A1.7,1.7,0,0,1,2407.9,548.49Z" transform="translate(-2156.52 -263)"/><path class="cls-67" d="M2454.16,548.7h-18.38a1.42,1.42,0,0,1-1.28-.35l0.22-4.4a1.52,1.52,0,0,1,1.28-.34h17.94a1.52,1.52,0,0,1,1.28.34l0.21,4.4A1.42,1.42,0,0,1,2454.16,548.7Z" transform="translate(-2156.52 -263)"/><path class="cls-67" d="M2477.3,548.7h-18.38a1.56,1.56,0,0,1-1.31-.35l-0.26-4.4a1.39,1.39,0,0,1,1.24-.34h17.94a1.66,1.66,0,0,1,1.32.34l0.7,4.4C2478.57,548.54,2478,548.7,2477.3,548.7Z" transform="translate(-2156.52 -263)"/><path class="cls-67" d="M2500.39,548.49H2482a1.7,1.7,0,0,1-1.35-.35l-0.74-4.39c0-.19.51-0.34,1.21-0.34h17.92a1.81,1.81,0,0,1,1.35.34l1.17,4.39C2501.64,548.33,2501.11,548.49,2500.39,548.49Z" transform="translate(-2156.52 -263)"/><path class="cls-67" d="M2523.51,548.49h-18.36a1.85,1.85,0,0,1-1.39-.35l-1.22-4.39c-0.05-.19.47-0.34,1.17-0.34h17.92a2,2,0,0,1,1.39.34l1.65,4.39C2524.75,548.33,2524.23,548.49,2523.51,548.49Z" transform="translate(-2156.52 -263)"/><path class="cls-67" d="M2546.64,548.49h-18.36a2,2,0,0,1-1.43-.35l-1.7-4.39c-0.07-.19.43-0.34,1.13-0.34h17.92a2.13,2.13,0,0,1,1.43.34l2.13,4.39C2547.85,548.33,2547.35,548.49,2546.64,548.49Z" transform="translate(-2156.52 -263)"/><path class="cls-67" d="M2569.76,548.49H2551.4a2.18,2.18,0,0,1-1.47-.35l-2.18-4.39c-0.09-.19.4-0.34,1.09-0.34h17.92a2.3,2.3,0,0,1,1.46.34l2.61,4.39C2571,548.33,2570.47,548.49,2569.76,548.49Z" transform="translate(-2156.52 -263)"/><path class="cls-67" d="M2609.71,548.49H2575a3.18,3.18,0,0,1-2-.48l-2.51-4.15c-0.15-.25.49-0.46,1.43-0.46h33.9a3.54,3.54,0,0,1,2.06.46l3.26,4.15C2611.28,548.27,2610.67,548.49,2609.71,548.49Z" transform="translate(-2156.52 -263)"/><path class="cls-67" d="M2314.28,548.49h-33.4c-0.95,0-1.55-.21-1.35-0.47l3.27-4.17a3.47,3.47,0,0,1,2-.45h32.6c0.92,0,1.55.2,1.4,0.45l-2.54,4.17A3.14,3.14,0,0,1,2314.28,548.49Z" transform="translate(-2156.52 -263)"/><path class="cls-67" d="M2573.09,562.73h-20.46a1.79,1.79,0,0,1-1.26-.32l-1.46-3.09c-0.08-.17.34-0.31,0.95-0.31H2571a1.91,1.91,0,0,1,1.27.31l1.77,3.09C2574.12,562.58,2573.7,562.73,2573.09,562.73Z" transform="translate(-2156.52 -263)"/><path class="cls-67" d="M2621.7,562.73h-20.46a2.11,2.11,0,0,1-1.33-.32l-2.12-3.09c-0.12-.17.27-0.31,0.88-0.31h20.13a2.23,2.23,0,0,1,1.34.31l2.43,3.09C2622.69,562.58,2622.31,562.73,2621.7,562.73Z" transform="translate(-2156.52 -263)"/><path class="cls-67" d="M2597,562.73h-19.67a2.65,2.65,0,0,1-1.76-.44l-3.43-5.94c-0.13-.23.42-0.41,1.22-0.41h19.08a2.78,2.78,0,0,1,1.75.41l4,5.94C2598.37,562.53,2597.83,562.73,2597,562.73Z" transform="translate(-2156.52 -263)"/><rect class="cls-68" x="129.86" y="50.93" width="325.81" height="169.47"/><path class="cls-28" d="M2287.8,313.93a1.42,1.42,0,0,1-1.42-1.42V304a7.4,7.4,0,0,1,.62-2.69l2.45-5.09a2.47,2.47,0,0,1,2-1.28h56.21a2.28,2.28,0,0,1,1.95,1.31l1.92,4.75a2.28,2.28,0,0,0,1.95,1.31h257.27a1.42,1.42,0,0,1,1.42,1.42v8.81a1.42,1.42,0,0,1-1.42,1.42h-323Z" transform="translate(-2156.52 -263)"/><rect class="cls-69" x="158.73" y="41.42" width="287.35" height="7.34" rx="1.42" ry="1.42"/><line class="cls-70" x1="136.55" y1="35.22" x2="182.29" y2="35.22"/><line class="cls-71" x1="136.55" y1="76.31" x2="197.47" y2="76.31"/><line class="cls-72" x1="140.04" y1="44.76" x2="144.55" y2="44.76"/><polyline class="cls-72" points="142.87 42.47 145.17 44.76 142.95 46.98"/><line class="cls-72" x1="136.55" y1="44.69" x2="132.04" y2="44.69"/><polyline class="cls-72" points="133.72 46.98 131.43 44.69 133.65 42.47"/><path class="cls-72" d="M2310.55,307.25l1.33,0.43a2.78,2.78,0,1,0-2.78,2.78" transform="translate(-2156.52 -263)"/><line class="cls-72" x1="156.12" y1="43.52" x2="155.37" y2="44.69"/><polygon class="cls-73" points="442.41 41.94 443.28 43.71 445.23 43.99 443.82 45.37 444.15 47.31 442.41 46.39 440.66 47.31 441 45.37 439.58 43.99 441.53 43.71 442.41 41.94"/><line class="cls-72" x1="448.37" y1="43.05" x2="453.23" y2="43.05"/><line class="cls-72" x1="448.37" y1="44.62" x2="453.23" y2="44.62"/><line class="cls-72" x1="448.37" y1="46.2" x2="453.23" y2="46.2"/><rect class="cls-74" x="129.86" y="50.93" width="325.81" height="12.82"/><line class="cls-75" x1="155.37" y1="57.34" x2="168.72" y2="57.34"/><line class="cls-76" x1="152.05" y1="144.5" x2="165.41" y2="144.5"/><line class="cls-75" x1="182.29" y1="57.34" x2="195.65" y2="57.34"/><line class="cls-75" x1="209.9" y1="57.34" x2="223.25" y2="57.34"/><line class="cls-75" x1="266.55" y1="57.34" x2="279.9" y2="57.34"/><line class="cls-75" x1="236.83" y1="57.34" x2="255.84" y2="57.34"/><line class="cls-75" x1="292.9" y1="57.34" x2="308.76" y2="57.34"/><line class="cls-75" x1="384.63" y1="57.34" x2="427.32" y2="57.34"/><circle class="cls-68" cx="442.61" cy="57.36" r="2.06"/><line class="cls-77" x1="135.32" y1="89.33" x2="450.8" y2="89.33"/><g class="cls-78"><rect class="cls-79" x="346.17" y="96.52" width="106.11" height="15.22"/></g><rect class="cls-4" x="349.34" y="99.05" width="99.98" height="65.31"/><g class="cls-80"><rect class="cls-79" x="346.17" y="169.44" width="106.11" height="15.22"/></g><rect class="cls-4" x="349.34" y="171.34" width="99.98" height="26.63"/><line class="cls-4" x1="349.34" y1="124.84" x2="449.32" y2="124.84"/><line class="cls-4" x1="349.34" y1="138.16" x2="449.32" y2="138.16"/><line class="cls-4" x1="349.34" y1="151.26" x2="449.32" y2="151.26"/><line class="cls-81" x1="354.48" y1="118.29" x2="409.84" y2="118.29"/><line class="cls-81" x1="354.48" y1="131.71" x2="409.84" y2="131.71"/><line class="cls-81" x1="354.48" y1="144.5" x2="406.91" y2="144.5"/><line class="cls-81" x1="354.48" y1="191.21" x2="403.14" y2="191.21"/><line class="cls-81" x1="354.48" y1="157.81" x2="414.17" y2="157.81"/><line class="cls-82" x1="355.57" y1="104.97" x2="380.73" y2="104.97"/><line class="cls-82" x1="355.57" y1="178.32" x2="370.63" y2="178.32"/><circle class="cls-83" cx="158.73" cy="118.18" r="14.48"/><line class="cls-24" x1="158.73" y1="99.05" x2="158.73" y2="110.47"/><line class="cls-76" x1="205.27" y1="144.5" x2="218.62" y2="144.5"/><circle class="cls-83" cx="211.95" cy="118.18" r="14.48"/><line class="cls-24" x1="211.95" y1="99.05" x2="211.95" y2="110.47"/><line class="cls-76" x1="258.43" y1="144.5" x2="274.25" y2="144.5"/><circle class="cls-83" cx="266.55" cy="118.18" r="14.48"/><line class="cls-24" x1="266.55" y1="99.05" x2="266.55" y2="110.47"/><line class="cls-76" x1="311.27" y1="144.5" x2="327.09" y2="144.5"/><circle class="cls-83" cx="319.39" cy="118.18" r="14.48"/><line class="cls-24" x1="319.39" y1="99.05" x2="319.39" y2="110.47"/><rect class="cls-79" x="129.86" y="208.17" width="325.81" height="12.23"/><line class="cls-82" x1="135.18" y1="214.29" x2="169.7" y2="214.29"/><line class="cls-82" x1="390.89" y1="214.29" x2="403.14" y2="214.29"/><line class="cls-84" x1="408.04" y1="214.29" x2="449.32" y2="214.29"/><polygon class="cls-85" points="164.71 47.47 161.53 47.47 161.53 42.47 163.48 42.47 163.4 43.97 164.71 43.89 164.71 47.47"/><line class="cls-85" x1="163.48" y1="42.47" x2="164.71" y2="43.89"/><line class="cls-70" x1="192.61" y1="45.09" x2="217.24" y2="45.09"/><line class="cls-82" x1="167.01" y1="45.09" x2="188.12" y2="45.09"/><path class="cls-33" d="M2296.22,317.93a0.7,0.7,0,0,0,.7-0.34,0.65,0.65,0,1,0-1.11-.67,0.7,0.7,0,0,0,0,.79,1.16,1.16,0,0,0-1.15.18,3.22,3.22,0,0,0,1.92,1.16A1.16,1.16,0,0,0,2296.22,317.93Z" transform="translate(-2156.52 -263)"/><path class="cls-34" d="M2292.76,317.93a0.7,0.7,0,0,1-.7-0.34,0.65,0.65,0,1,1,1.11-.67,0.7,0.7,0,0,1,0,.79,1.16,1.16,0,0,1,1.15.18,3.22,3.22,0,0,1-1.92,1.16A1.16,1.16,0,0,1,2292.76,317.93Z" transform="translate(-2156.52 -263)"/><path class="cls-35" d="M2292.86,322.89a0.62,0.62,0,0,0-.62.32,0.6,0.6,0,1,0,1,.58,0.62,0.62,0,0,0-.06-0.7,1.15,1.15,0,0,0,1.09-.18,5.88,5.88,0,0,0-1.86-1A1.14,1.14,0,0,0,2292.86,322.89Z" transform="translate(-2156.52 -263)"/><path class="cls-36" d="M2296.12,322.89a0.62,0.62,0,0,1,.62.32,0.6,0.6,0,1,1-1,.58,0.62,0.62,0,0,1,.06-0.7,1.15,1.15,0,0,1-1.09-.18,5.88,5.88,0,0,1,1.86-1A1.14,1.14,0,0,1,2296.12,322.89Z" transform="translate(-2156.52 -263)"/><path class="cls-37" d="M2291.5,320.28a0.67,0.67,0,0,0-.61-0.42,0.63,0.63,0,1,0,.61.84,1.17,1.17,0,0,0,.75.86,2.06,2.06,0,0,0,.13-1.07,2,2,0,0,0-.2-1.11A1.23,1.23,0,0,0,2291.5,320.28Z" transform="translate(-2156.52 -263)"/><path class="cls-38" d="M2297.48,320.28a0.67,0.67,0,0,1,.61-0.42,0.63,0.63,0,1,1-.61.84,1.17,1.17,0,0,1-.75.86,2.06,2.06,0,0,1-.13-1.07,2,2,0,0,1,.2-1.11A1.23,1.23,0,0,1,2297.48,320.28Z" transform="translate(-2156.52 -263)"/></g></g></svg>